<svg width="18" height="19" viewBox="0 0 18 19" fill="none" xmlns="http://www.w3.org/2000/svg">
<path d="M17.4 9.41031C17.4 13.9815 13.6462 17.6997 9 17.6997C4.35379 17.6997 0.6 13.9815 0.6 9.41031C0.6 4.83915 4.35379 1.12087 9 1.12087C13.6462 1.12087 17.4 4.83915 17.4 9.41031Z" stroke="#242424" stroke-width="1.2"/>
<path d="M9 17.312C13.4183 17.312 17 13.7743 17 9.41033C17 5.04633 13.4183 1.50861 9 1.50861C4.58172 1.50861 1 5.04633 1 9.41033C1 13.7743 4.58172 17.312 9 17.312Z" stroke="#242424" stroke-width="1.2"/>
<path d="M8.5 10.398V9.89805H8H6C5.8654 9.89805 5.73751 9.84516 5.64421 9.75301C5.55115 9.66109 5.5 9.53773 5.5 9.41033C5.5 9.28294 5.55115 9.15958 5.64421 9.06766C5.73751 8.9755 5.86541 8.92262 6 8.92262H8H8.5V8.42262V6.44719C8.5 6.31979 8.55115 6.19643 8.64421 6.10451C8.73751 6.01236 8.86541 5.95947 9 5.95947C9.13459 5.95947 9.26249 6.01236 9.35579 6.10451C9.44885 6.19643 9.5 6.31979 9.5 6.44719V8.42262V8.92262H10H12C12.1346 8.92262 12.2625 8.9755 12.3558 9.06766C12.4489 9.15958 12.5 9.28294 12.5 9.41033C12.5 9.53773 12.4489 9.66109 12.3558 9.75301C12.2625 9.84516 12.1346 9.89805 12 9.89805H10H9.5V10.398V12.3735C9.5 12.5009 9.44885 12.6242 9.35579 12.7162C9.26249 12.8083 9.13459 12.8612 9 12.8612C8.86541 12.8612 8.73751 12.8083 8.64421 12.7162C8.55115 12.6242 8.5 12.5009 8.5 12.3735V10.398Z" fill="#666666" stroke="#242424"/>
</svg>
