<svg width="44" height="44" viewBox="0 0 44 44" fill="none" xmlns="http://www.w3.org/2000/svg">
<g opacity="0.5" filter="url(#filter0_bd_471_1386)">
<path fill-rule="evenodd" clip-rule="evenodd" d="M21.9998 7.89612C14.7635 7.89612 8.89567 13.7625 8.89567 21.0003C8.89567 28.2366 14.7635 34.1045 21.9998 34.1045C29.2362 34.1045 35.104 28.2366 35.104 21.0003C35.104 13.7625 29.2362 7.89612 21.9998 7.89612Z" fill="white"/>
<path fill-rule="evenodd" clip-rule="evenodd" d="M21.9998 7.89612C14.7635 7.89612 8.89567 13.7625 8.89567 21.0003C8.89567 28.2366 14.7635 34.1045 21.9998 34.1045C29.2362 34.1045 35.104 28.2366 35.104 21.0003C35.104 13.7625 29.2362 7.89612 21.9998 7.89612Z" stroke="white" stroke-width="1.5" stroke-linecap="round" stroke-linejoin="round"/>
</g>
<path d="M24.043 16.0828L19.1045 21L24.043 25.9173" stroke="black" stroke-width="1.5" stroke-linecap="round" stroke-linejoin="round"/>
<defs>
<filter id="filter0_bd_471_1386" x="0.145508" y="0.146118" width="43.7085" height="43.7084" filterUnits="userSpaceOnUse" color-interpolation-filters="sRGB">
<feFlood flood-opacity="0" result="BackgroundImageFix"/>
<feGaussianBlur in="BackgroundImageFix" stdDeviation="2"/>
<feComposite in2="SourceAlpha" operator="in" result="effect1_backgroundBlur_471_1386"/>
<feColorMatrix in="SourceAlpha" type="matrix" values="0 0 0 0 0 0 0 0 0 0 0 0 0 0 0 0 0 0 127 0" result="hardAlpha"/>
<feOffset dy="1"/>
<feGaussianBlur stdDeviation="4"/>
<feComposite in2="hardAlpha" operator="out"/>
<feColorMatrix type="matrix" values="0 0 0 0 0 0 0 0 0 0 0 0 0 0 0 0 0 0 0.15 0"/>
<feBlend mode="normal" in2="effect1_backgroundBlur_471_1386" result="effect2_dropShadow_471_1386"/>
<feBlend mode="normal" in="SourceGraphic" in2="effect2_dropShadow_471_1386" result="shape"/>
</filter>
</defs>
</svg>
