<svg width="13" height="15" viewBox="0 0 13 15" fill="none" xmlns="http://www.w3.org/2000/svg">
<rect x="4.09521" y="3.93701" width="1.27273" height="1.27273" fill="#140C1C"/>
<rect x="2.82275" y="5.20972" width="1.27273" height="1.27273" fill="#140C1C"/>
<rect x="1.5498" y="6.48242" width="1.27273" height="1.27273" fill="#140C1C"/>
<rect x="0.277344" y="7.75513" width="1.27273" height="3.81818" fill="#140C1C"/>
<rect x="1.5498" y="11.5734" width="1.27273" height="1.27273" fill="#140C1C"/>
<rect x="2.82275" y="12.8461" width="7.63637" height="1.27273" fill="#140C1C"/>
<rect x="10.459" y="11.5734" width="1.27273" height="1.27273" fill="#140C1C"/>
<rect x="11.7317" y="7.75513" width="1.27273" height="3.81818" fill="#140C1C"/>
<rect x="10.459" y="6.48242" width="1.27273" height="1.27273" fill="#140C1C"/>
<rect x="9.18652" y="5.20972" width="1.27273" height="1.27273" fill="#140C1C"/>
<rect x="7.91357" y="3.93701" width="1.27273" height="1.27273" fill="#140C1C"/>
<rect x="9.18652" y="1.39154" width="1.27273" height="2.54546" fill="#140C1C"/>
<rect x="4.09521" y="0.118774" width="5.09091" height="1.27273" fill="#140C1C"/>
<rect x="2.82275" y="1.39154" width="1.27273" height="2.54546" fill="#140C1C"/>
<rect x="4.09521" y="1.39154" width="1.27273" height="1.27273" fill="#D27D2C"/>
<rect x="5.36816" y="1.39154" width="2.54546" height="1.27273" fill="#854C30"/>
<rect x="7.91357" y="1.39154" width="1.27273" height="1.27273" fill="#442434"/>
<rect x="4.09521" y="2.66431" width="2.54546" height="1.27273" fill="#854C30"/>
<rect x="6.64111" y="2.66431" width="2.54546" height="1.27273" fill="#442434"/>
<rect x="5.36816" y="3.93701" width="2.54546" height="1.27273" fill="white"/>
<rect x="4.09521" y="5.20972" width="3.81818" height="1.27273" fill="white"/>
<rect x="7.91357" y="5.20972" width="1.27273" height="1.27273" fill="#B7B7B7"/>
<rect x="2.82275" y="6.48242" width="1.27273" height="1.27273" fill="#C2C1BF"/>
<rect x="5.36816" y="6.48242" width="3.81818" height="1.27273" fill="white"/>
<rect x="9.18652" y="6.48242" width="1.27273" height="1.27273" fill="#C4C4C4"/>
<rect x="4.09521" y="6.48242" width="1.27273" height="2.54546" fill="#DEEED6"/>
<rect x="2.82275" y="7.75513" width="1.27273" height="1.27273" fill="#DEEED6"/>
<rect x="1.5498" y="7.75513" width="1.27273" height="3.81818" fill="#ABBEAD"/>
<rect x="2.82275" y="9.02789" width="1.27273" height="2.54546" fill="#57D147"/>
<rect x="4.09521" y="9.02789" width="6.36364" height="1.27273" fill="#48D046"/>
<rect x="5.36816" y="7.75513" width="3.81818" height="1.27273" fill="#5DD046"/>
<rect x="9.18652" y="7.75513" width="1.27273" height="1.27273" fill="#92D3B0"/>
<rect x="10.459" y="7.75513" width="1.27273" height="2.54546" fill="#1C8E3E"/>
<rect x="10.459" y="10.3006" width="1.27273" height="1.27273" fill="#4E4A4E"/>
<rect x="9.18652" y="10.3006" width="1.27273" height="1.27273" fill="#109555"/>
<rect x="7.91357" y="10.3006" width="1.27273" height="1.27273" fill="#46D04D"/>
<rect x="6.64111" y="10.3006" width="1.27273" height="1.27273" fill="#109555"/>
<rect x="5.36816" y="10.3006" width="1.27273" height="1.27273" fill="#4FD046"/>
<rect x="4.09521" y="10.3006" width="1.27273" height="1.27273" fill="#109555"/>
<rect x="2.82275" y="11.5734" width="1.27273" height="1.27273" fill="#4E4A4E"/>
<rect x="9.18652" y="11.5734" width="1.27273" height="1.27273" fill="#4E4A4E"/>
<rect x="4.09521" y="11.5734" width="5.09091" height="1.27273" fill="#757161"/>
</svg>
