<svg width="17" height="17" viewBox="0 0 17 17" fill="none" xmlns="http://www.w3.org/2000/svg">
<path d="M8.37404 0.315926C9.45064 0.296692 10.5193 0.503477 11.511 0.922926C12.4676 1.32552 13.3414 1.90192 14.088 2.62293C14.8467 3.36175 15.4508 4.24422 15.8649 5.2189C16.279 6.19357 16.4949 7.24094 16.5 8.29992C16.5185 9.31893 16.3346 10.3315 15.959 11.2789C15.5972 12.1928 15.0685 13.0314 14.4 13.7519C13.7255 14.4746 12.9307 15.0748 12.051 15.5259C11.1445 15.9939 10.1579 16.287 9.14296 16.3899C8.87629 16.4266 8.58871 16.4573 8.28004 16.4819C7.97138 16.5066 7.63198 16.5249 7.26198 16.5369C6.88864 16.5489 6.47303 16.5489 6.01503 16.5369C5.55703 16.5249 5.04 16.4883 4.464 16.4269C3.50607 16.3599 2.55694 16.1998 1.63002 15.9489C1.01202 15.7529 0.76431 15.6426 0.886977 15.6179C1.46792 15.5293 2.03127 15.3494 2.55604 15.0849C2.66482 15.0374 2.754 14.954 2.80861 14.8486C2.86322 14.7432 2.87988 14.6222 2.85597 14.5059C2.80627 14.2407 2.68219 13.9952 2.49806 13.7979C1.8606 13.0898 1.34855 12.2782 0.984023 11.3979C0.594087 10.4621 0.385401 9.46065 0.369032 8.44692C0.349784 7.36825 0.555823 6.29743 0.974013 5.30293C1.37498 4.34487 1.95392 3.47146 2.68007 2.72893C3.40975 1.98796 4.27551 1.39478 5.22999 0.981926C6.22172 0.54818 7.29162 0.321548 8.37404 0.315926ZM11.952 8.40592C11.9495 8.55742 11.9774 8.70788 12.0341 8.84839C12.0908 8.9889 12.175 9.1166 12.282 9.22392C12.3854 9.33371 12.5106 9.42066 12.6495 9.47922C12.7885 9.53777 12.9382 9.56662 13.089 9.56392C13.3958 9.56287 13.6896 9.44032 13.9063 9.22311C14.1229 9.0059 14.2447 8.71171 14.245 8.40492C14.2479 8.25392 14.2192 8.10398 14.1608 7.96468C14.1024 7.82538 14.0157 7.69979 13.906 7.59593C13.799 7.48873 13.6715 7.40418 13.5311 7.34731C13.3908 7.29045 13.2404 7.26243 13.089 7.26493C12.9391 7.26386 12.7906 7.29264 12.652 7.34958C12.5134 7.40653 12.3875 7.49051 12.2816 7.59662C12.1758 7.70274 12.0921 7.82886 12.0355 7.96763C11.979 8.10641 11.9506 8.25606 11.952 8.40592ZM7.34706 8.40592C7.35093 8.71636 7.47571 9.01304 7.69496 9.23285C7.91421 9.45267 8.21058 9.57826 8.52101 9.58293C8.67684 9.58623 8.83167 9.55688 8.97548 9.49678C9.11928 9.43667 9.24884 9.34714 9.35597 9.23393C9.57365 9.01169 9.69557 8.71301 9.69557 8.40193C9.69557 8.09085 9.57365 7.79216 9.35597 7.56993C9.19069 7.4061 8.98072 7.29485 8.75233 7.25019C8.52395 7.20552 8.28746 7.22945 8.07265 7.31894C7.85783 7.40844 7.6743 7.55951 7.54518 7.75311C7.41606 7.94672 7.34713 8.17421 7.34706 8.40693V8.40592ZM2.79701 8.38793C2.79535 8.54144 2.82448 8.69372 2.8827 8.83577C2.94093 8.97782 3.02707 9.10675 3.136 9.21493C3.24023 9.32677 3.3666 9.41565 3.50709 9.47592C3.64759 9.53618 3.79917 9.56649 3.95204 9.56492C4.10792 9.56798 4.26271 9.53842 4.40651 9.47815C4.5503 9.41788 4.67988 9.32822 4.787 9.21493C4.89598 9.10678 4.98219 8.97786 5.04042 8.83581C5.09865 8.69375 5.12771 8.54145 5.12599 8.38793C5.12816 8.23568 5.0992 8.08459 5.04091 7.94393C4.98261 7.80327 4.89623 7.676 4.787 7.56993C4.67846 7.45917 4.54842 7.37186 4.4048 7.31338C4.26118 7.2549 4.10707 7.22649 3.95204 7.22993C3.64543 7.23098 3.35164 7.35339 3.13502 7.57038C2.9184 7.78738 2.79754 8.08131 2.79701 8.38793Z" fill="currentColor"/>
</svg>
