<svg width="22" height="22" viewBox="0 0 22 22" fill="none" xmlns="http://www.w3.org/2000/svg">
<path d="M17 6.75H9C8.30964 6.75 7.75 7.30964 7.75 8V16C7.75 16.6904 8.30964 17.25 9 17.25H17C17.6904 17.25 18.25 16.6904 18.25 16V8C18.25 7.30964 17.6904 6.75 17 6.75Z" stroke="currentColor" stroke-width="1.2"/>
<path d="M14 3.75H6C5.30964 3.75 4.75 4.30964 4.75 5V13C4.75 13.6904 5.30964 14.25 6 14.25H14C14.6904 14.25 15.25 13.6904 15.25 13V5C15.25 4.30964 14.6904 3.75 14 3.75Z" stroke="currentColor" stroke-width="1.2"/>
</svg>
