<?xml version="1.0" standalone="no"?><!DOCTYPE svg PUBLIC "-//W3C//DTD SVG 1.1//EN" "http://www.w3.org/Graphics/SVG/1.1/DTD/svg11.dtd"><svg t="1734839186875" class="icon" viewBox="0 0 1024 1024" version="1.1" xmlns="http://www.w3.org/2000/svg" p-id="5163" width="32" height="32" xmlns:xlink="http://www.w3.org/1999/xlink"><path d="M877 160.6H147c-44.7 0-81.1 36.4-81.1 81.1v540.5c0 44.7 36.4 81.1 81.1 81.1h730c44.7 0 81.1-36.4 81.1-81.1V241.7c0-44.7-36.4-81.1-81.1-81.1z m1.1 581.3L680 590.4c-17.5-13.4-42.7-10.1-56.1 7.5-13.4 17.5-10.1 42.7 7.5 56.1l169.2 129.4H222.5l170.4-130.8c17.5-13.5 20.8-38.6 7.4-56.1-13.5-17.5-38.6-20.8-56.1-7.4L145.9 741.3V299.8l251.2 192.8c33.1 25.4 73.6 38.1 114.2 38.1 40.5 0 80.9-12.6 114-37.9l252.9-193.6v442.7zM200.2 240.6H823L576.6 429.2c-37.3 28.6-93.6 28.5-130.8-0.1L200.2 240.6z" fill="#666666" p-id="5164"></path></svg>