<svg width="13" height="14" viewBox="0 0 13 14" fill="none" xmlns="http://www.w3.org/2000/svg">
<path d="M12.4754 3.63867V4.15847H11.9556V3.63867H12.4754Z" fill="#21201E"/>
<path d="M12.4754 3.11877V3.63857H11.9556V3.11877H12.4754Z" fill="#21201E"/>
<path d="M12.4754 2.599V3.1188H11.9556V2.599H12.4754Z" fill="#21201E"/>
<path d="M11.9556 4.15845V4.67825H11.4358V4.15845H11.9556Z" fill="#21201E"/>
<path d="M11.9556 3.63867V4.15847H11.4358V3.63867H11.9556Z" fill="#21201E"/>
<path d="M11.9556 3.11877V3.63857H11.4358V3.11877H11.9556Z" fill="#F4EBA7"/>
<path d="M11.9556 2.599V3.1188H11.4358V2.599H11.9556Z" fill="#21201E"/>
<path d="M11.9556 2.07922V2.59902H11.4358V2.07922H11.9556Z" fill="#21201E"/>
<path d="M11.9556 1.55939V2.07919H11.4358V1.55939H11.9556Z" fill="#21201E"/>
<path d="M11.4358 6.75745V7.27725H10.916V6.75745H11.4358Z" fill="#21201E"/>
<path d="M11.4358 6.23761V6.75741H10.916V6.23761H11.4358Z" fill="#21201E"/>
<path d="M11.4358 5.71783V6.23763H10.916V5.71783H11.4358Z" fill="#21201E"/>
<path d="M11.4358 5.19794V5.71774H10.916V5.19794H11.4358Z" fill="#21201E"/>
<path d="M11.4358 4.15845V4.67825H10.916V4.15845H11.4358Z" fill="#21201E"/>
<path d="M11.4358 3.63867V4.15847H10.916V3.63867H11.4358Z" fill="#F4EBA7"/>
<path d="M11.4358 3.11877V3.63857H10.916V3.11877H11.4358Z" fill="#F4EBA7"/>
<path d="M11.4358 2.599V3.1188H10.916V2.599H11.4358Z" fill="#F4EBA7"/>
<path d="M11.4358 2.07922V2.59902H10.916V2.07922H11.4358Z" fill="#F4EBA7"/>
<path d="M11.4358 1.55939V2.07919H10.916V1.55939H11.4358Z" fill="#21201E"/>
<path d="M11.4358 1.03967V1.55947H10.916V1.03967H11.4358Z" fill="#21201E"/>
<path d="M11.4358 0.519897V1.0397H10.916V0.519897H11.4358Z" fill="#21201E"/>
<path d="M10.9158 12.9951V13.5149H10.396V12.9951H10.9158Z" fill="#21201E"/>
<path d="M10.9158 12.4753V12.9951H10.396V12.4753H10.9158Z" fill="#21201E"/>
<path d="M10.9158 11.9554V12.4752H10.396V11.9554H10.9158Z" fill="#21201E"/>
<path d="M10.9158 11.4357V11.9555H10.396V11.4357H10.9158Z" fill="#21201E"/>
<path d="M10.9158 10.9158V11.4356H10.396V10.9158H10.9158Z" fill="#21201E"/>
<path d="M10.9158 10.3961V10.9159H10.396V10.3961H10.9158Z" fill="#21201E"/>
<path d="M10.9158 9.87616V10.396H10.396V9.87616H10.9158Z" fill="#21201E"/>
<path d="M10.9158 9.35651V9.87631H10.396V9.35651H10.9158Z" fill="#21201E"/>
<path d="M10.9158 8.83661V9.35641H10.396V8.83661H10.9158Z" fill="#21201E"/>
<path d="M10.9158 8.31683V8.83663H10.396V8.31683H10.9158Z" fill="#21201E"/>
<path d="M10.9158 7.797V8.3168H10.396V7.797H10.9158Z" fill="#21201E"/>
<path d="M10.9158 7.27722V7.79702H10.396V7.27722H10.9158Z" fill="#21201E"/>
<path d="M10.9158 6.75745V7.27725H10.396V6.75745H10.9158Z" fill="#F9C62C"/>
<path d="M10.9158 6.23761V6.75741H10.396V6.23761H10.9158Z" fill="#F9C62C"/>
<path d="M10.9158 5.71783V6.23763H10.396V5.71783H10.9158Z" fill="#F9C62C"/>
<path d="M10.9158 5.19806V5.71786H10.396V5.19806H10.9158Z" fill="#5FDBFD"/>
<path d="M10.9158 4.67822V5.19802H10.396V4.67822H10.9158Z" fill="#21201E"/>
<path d="M10.9158 4.15845V4.67825H10.396V4.15845H10.9158Z" fill="#21201E"/>
<path d="M10.9158 3.63867V4.15847H10.396V3.63867H10.9158Z" fill="#F4EBA7"/>
<path d="M10.9158 3.11877V3.63857H10.396V3.11877H10.9158Z" fill="#F4EBA7"/>
<path d="M10.9158 2.599V3.1188H10.396V2.599H10.9158Z" fill="#F4EBA7"/>
<path d="M10.9158 2.07922V2.59902H10.396V2.07922H10.9158Z" fill="#F4EBA7"/>
<path d="M10.9158 1.55939V2.07919H10.396V1.55939H10.9158Z" fill="#F4EBA7"/>
<path d="M10.9158 1.03967V1.55947H10.396V1.03967H10.9158Z" fill="#F4EBA7"/>
<path d="M10.9158 0.519897V1.0397H10.396V0.519897H10.9158Z" fill="#21201E"/>
<path d="M10.3958 12.9951V13.5149H9.87598V12.9951H10.3958Z" fill="#21201E"/>
<path d="M10.3958 12.4752V12.995H9.87598V12.4752H10.3958Z" fill="#5FDBFD"/>
<path d="M10.3958 11.9554V12.4752H9.87598V11.9554H10.3958Z" fill="#5FDBFD"/>
<path d="M10.3958 11.4357V11.9555H9.87598V11.4357H10.3958Z" fill="#5FDBFD"/>
<path d="M10.3958 10.9158V11.4356H9.87598V10.9158H10.3958Z" fill="#5FDBFD"/>
<path d="M10.3958 10.3961V10.9159H9.87598V10.3961H10.3958Z" fill="#5FDBFD"/>
<path d="M10.3958 9.87628V10.3961H9.87598V9.87628H10.3958Z" fill="#5FDBFD"/>
<path d="M10.3958 9.35638V9.87618H9.87598V9.35638H10.3958Z" fill="#5FDBFD"/>
<path d="M10.3958 8.83661V9.35641H9.87598V8.83661H10.3958Z" fill="#5FDBFD"/>
<path d="M10.3958 8.31683V8.83663H9.87598V8.31683H10.3958Z" fill="#F9C62C"/>
<path d="M10.3958 7.797V8.3168H9.87598V7.797H10.3958Z" fill="#F9C62C"/>
<path d="M10.3958 7.27722V7.79702H9.87598V7.27722H10.3958Z" fill="#21201E"/>
<path d="M10.3958 6.75745V7.27725H9.87598V6.75745H10.3958Z" fill="#F9C62C"/>
<path d="M10.3958 6.23761V6.75741H9.87598V6.23761H10.3958Z" fill="#F9C62C"/>
<path d="M10.3958 5.71783V6.23763H9.87598V5.71783H10.3958Z" fill="#F9C62C"/>
<path d="M10.3958 5.19794V5.71774H9.87598V5.19794H10.3958Z" fill="#5FDBFD"/>
<path d="M10.3958 4.67816V5.19796H9.87598V4.67816H10.3958Z" fill="#21201E"/>
<path d="M10.3958 4.15845V4.67825H9.87598V4.15845H10.3958Z" fill="#F4EBA7"/>
<path d="M10.3958 3.63867V4.15847H9.87598V3.63867H10.3958Z" fill="#F4EBA7"/>
<path d="M10.3958 3.11877V3.63857H9.87598V3.11877H10.3958Z" fill="#F4EBA7"/>
<path d="M10.3958 2.599V3.1188H9.87598V2.599H10.3958Z" fill="#F4EBA7"/>
<path d="M10.3958 2.07922V2.59902H9.87598V2.07922H10.3958Z" fill="#F4EBA7"/>
<path d="M10.3958 1.55939V2.07919H9.87598V1.55939H10.3958Z" fill="#F4EBA7"/>
<path d="M10.3958 1.03967V1.55947H9.87598V1.03967H10.3958Z" fill="#F4EBA7"/>
<path d="M10.3958 0.519897V1.0397H9.87598V0.519897H10.3958Z" fill="#21201E"/>
<path d="M10.3958 0V0.5198H9.87598V0H10.3958Z" fill="#21201E"/>
<path d="M9.87625 12.9951V13.5149H9.35645V12.9951H9.87625Z" fill="#21201E"/>
<path d="M9.87625 12.4753V12.9951H9.35645V12.4753H9.87625Z" fill="#F9C62C"/>
<path d="M9.87625 11.9554V12.4752H9.35645V11.9554H9.87625Z" fill="#F9C62C"/>
<path d="M9.87625 11.4357V11.9555H9.35645V11.4357H9.87625Z" fill="#F9C62C"/>
<path d="M9.87625 10.9158V11.4356H9.35645V10.9158H9.87625Z" fill="#F9C62C"/>
<path d="M9.87625 10.3961V10.9159H9.35645V10.3961H9.87625Z" fill="#F9C62C"/>
<path d="M9.87625 9.87616V10.396H9.35645V9.87616H9.87625Z" fill="#F9C62C"/>
<path d="M9.87625 9.35651V9.87631H9.35645V9.35651H9.87625Z" fill="#F9C62C"/>
<path d="M9.87625 8.83661V9.35641H9.35645V8.83661H9.87625Z" fill="#F9C62C"/>
<path d="M9.87625 8.31683V8.83663H9.35645V8.31683H9.87625Z" fill="#F9C62C"/>
<path d="M9.87625 7.797V8.3168H9.35645V7.797H9.87625Z" fill="#F9C62C"/>
<path d="M9.87625 7.27722V7.79702H9.35645V7.27722H9.87625Z" fill="#21201E"/>
<path d="M9.87625 6.75745V7.27725H9.35645V6.75745H9.87625Z" fill="#F9C62C"/>
<path d="M9.87625 6.23761V6.75741H9.35645V6.23761H9.87625Z" fill="#F9C62C"/>
<path d="M9.87625 5.71783V6.23763H9.35645V5.71783H9.87625Z" fill="#F9C62C"/>
<path d="M9.87625 5.19806V5.71786H9.35645V5.19806H9.87625Z" fill="#5FDBFD"/>
<path d="M9.87625 4.67822V5.19802H9.35645V4.67822H9.87625Z" fill="#21201E"/>
<path d="M9.87625 4.15845V4.67825H9.35645V4.15845H9.87625Z" fill="#F4EBA7"/>
<path d="M9.87625 3.63867V4.15847H9.35645V3.63867H9.87625Z" fill="#F4EBA7"/>
<path d="M9.87625 3.11877V3.63857H9.35645V3.11877H9.87625Z" fill="#F4EBA7"/>
<path d="M9.87625 2.599V3.1188H9.35645V2.599H9.87625Z" fill="#F4EBA7"/>
<path d="M9.87625 2.07922V2.59902H9.35645V2.07922H9.87625Z" fill="#F4EBA7"/>
<path d="M9.87625 1.55939V2.07919H9.35645V1.55939H9.87625Z" fill="#F4EBA7"/>
<path d="M9.87625 1.03967V1.55947H9.35645V1.03967H9.87625Z" fill="#F4EBA7"/>
<path d="M9.87625 0.519897V1.0397H9.35645V0.519897H9.87625Z" fill="#F4EBA7"/>
<path d="M9.87625 0V0.5198H9.35645V0H9.87625Z" fill="#21201E"/>
<path d="M9.35671 12.9951V13.5149H8.83691V12.9951H9.35671Z" fill="#21201E"/>
<path d="M9.35671 12.4752V12.995H8.83691V12.4752H9.35671Z" fill="#F9C62C"/>
<path d="M9.35671 11.9554V12.4752H8.83691V11.9554H9.35671Z" fill="#F9C62C"/>
<path d="M9.35671 11.4357V11.9555H8.83691V11.4357H9.35671Z" fill="#F9C62C"/>
<path d="M9.35671 10.9158V11.4356H8.83691V10.9158H9.35671Z" fill="#F9C62C"/>
<path d="M9.35671 10.3961V10.9159H8.83691V10.3961H9.35671Z" fill="#F9C62C"/>
<path d="M9.35671 9.87628V10.3961H8.83691V9.87628H9.35671Z" fill="#F9C62C"/>
<path d="M9.35671 9.35638V9.87618H8.83691V9.35638H9.35671Z" fill="#F9C62C"/>
<path d="M9.35671 8.83661V9.35641H8.83691V8.83661H9.35671Z" fill="#F9C62C"/>
<path d="M9.35671 8.31683V8.83663H8.83691V8.31683H9.35671Z" fill="#F9C62C"/>
<path d="M9.35671 7.797V8.3168H8.83691V7.797H9.35671Z" fill="#F9C62C"/>
<path d="M9.35671 7.27722V7.79702H8.83691V7.27722H9.35671Z" fill="#21201E"/>
<path d="M9.35671 6.75745V7.27725H8.83691V6.75745H9.35671Z" fill="#F9C62C"/>
<path d="M9.35671 6.23761V6.75741H8.83691V6.23761H9.35671Z" fill="#F9C62C"/>
<path d="M9.35671 5.71783V6.23763H8.83691V5.71783H9.35671Z" fill="#F9C62C"/>
<path d="M9.35671 5.19794V5.71774H8.83691V5.19794H9.35671Z" fill="#5FDBFD"/>
<path d="M9.35671 4.67816V5.19796H8.83691V4.67816H9.35671Z" fill="#21201E"/>
<path d="M9.35671 4.15845V4.67825H8.83691V4.15845H9.35671Z" fill="#F4EBA7"/>
<path d="M9.35671 3.63867V4.15847H8.83691V3.63867H9.35671Z" fill="#80EED3"/>
<path d="M9.35671 3.11877V3.63857H8.83691V3.11877H9.35671Z" fill="#80EED3"/>
<path d="M9.35671 2.599V3.1188H8.83691V2.599H9.35671Z" fill="#80EED3"/>
<path d="M9.35671 2.07922V2.59902H8.83691V2.07922H9.35671Z" fill="#F4EBA7"/>
<path d="M9.35671 1.55939V2.07919H8.83691V1.55939H9.35671Z" fill="#F4EBA7"/>
<path d="M9.35671 1.03967V1.55947H8.83691V1.03967H9.35671Z" fill="#F4EBA7"/>
<path d="M9.35671 0.519897V1.0397H8.83691V0.519897H9.35671Z" fill="#F4EBA7"/>
<path d="M9.35671 0V0.5198H8.83691V0H9.35671Z" fill="#21201E"/>
<path d="M8.83669 12.9951V13.5149H8.31689V12.9951H8.83669Z" fill="#21201E"/>
<path d="M8.83669 12.4752V12.995H8.31689V12.4752H8.83669Z" fill="#F9C62C"/>
<path d="M8.83669 11.9554V12.4752H8.31689V11.9554H8.83669Z" fill="#F9C62C"/>
<path d="M8.83669 11.4357V11.9555H8.31689V11.4357H8.83669Z" fill="#F9C62C"/>
<path d="M8.83669 10.9158V11.4356H8.31689V10.9158H8.83669Z" fill="#F9C62C"/>
<path d="M8.83669 10.3961V10.9159H8.31689V10.3961H8.83669Z" fill="#F9C62C"/>
<path d="M8.83669 9.87628V10.3961H8.31689V9.87628H8.83669Z" fill="#F9C62C"/>
<path d="M8.83669 9.35638V9.87618H8.31689V9.35638H8.83669Z" fill="#F9C62C"/>
<path d="M8.83669 8.83661V9.35641H8.31689V8.83661H8.83669Z" fill="#F9C62C"/>
<path d="M8.83669 8.31683V8.83663H8.31689V8.31683H8.83669Z" fill="#F9C62C"/>
<path d="M8.83669 7.797V8.3168H8.31689V7.797H8.83669Z" fill="#F9C62C"/>
<path d="M8.83669 7.27722V7.79702H8.31689V7.27722H8.83669Z" fill="#21201E"/>
<path d="M8.83669 6.75745V7.27725H8.31689V6.75745H8.83669Z" fill="#F9C62C"/>
<path d="M8.83669 6.23761V6.75741H8.31689V6.23761H8.83669Z" fill="#F9C62C"/>
<path d="M8.83669 5.71783V6.23763H8.31689V5.71783H8.83669Z" fill="#F9C62C"/>
<path d="M8.83669 5.19794V5.71774H8.31689V5.19794H8.83669Z" fill="#5FDBFD"/>
<path d="M8.83669 4.67816V5.19796H8.31689V4.67816H8.83669Z" fill="#21201E"/>
<path d="M8.83669 4.15845V4.67825H8.31689V4.15845H8.83669Z" fill="#80EED3"/>
<path d="M8.83669 3.63867V4.15847H8.31689V3.63867H8.83669Z" fill="#80EED3"/>
<path d="M8.83669 3.11877V3.63857H8.31689V3.11877H8.83669Z" fill="#21201E"/>
<path d="M8.83669 2.599V3.1188H8.31689V2.599H8.83669Z" fill="#80EED3"/>
<path d="M8.83669 2.07922V2.59902H8.31689V2.07922H8.83669Z" fill="#F4EBA7"/>
<path d="M8.83669 1.55939V2.07919H8.31689V1.55939H8.83669Z" fill="#F4EBA7"/>
<path d="M8.83669 1.03967V1.55947H8.31689V1.03967H8.83669Z" fill="#F4EBA7"/>
<path d="M8.83669 0.519897V1.0397H8.31689V0.519897H8.83669Z" fill="#21201E"/>
<path d="M8.31692 12.9951V13.5149H7.79712V12.9951H8.31692Z" fill="#21201E"/>
<path d="M8.31692 12.4752V12.995H7.79712V12.4752H8.31692Z" fill="#F9C62C"/>
<path d="M8.31692 11.9554V12.4752H7.79712V11.9554H8.31692Z" fill="#F9C62C"/>
<path d="M8.31692 11.4357V11.9555H7.79712V11.4357H8.31692Z" fill="#F9C62C"/>
<path d="M8.31692 10.9158V11.4356H7.79712V10.9158H8.31692Z" fill="#F9C62C"/>
<path d="M8.31692 10.3961V10.9159H7.79712V10.3961H8.31692Z" fill="#F9C62C"/>
<path d="M8.31692 9.87628V10.3961H7.79712V9.87628H8.31692Z" fill="#F9C62C"/>
<path d="M8.31692 9.35638V9.87618H7.79712V9.35638H8.31692Z" fill="#F9C62C"/>
<path d="M8.31692 8.83661V9.35641H7.79712V8.83661H8.31692Z" fill="#F9C62C"/>
<path d="M8.31692 8.31683V8.83663H7.79712V8.31683H8.31692Z" fill="#F9C62C"/>
<path d="M8.31692 7.797V8.3168H7.79712V7.797H8.31692Z" fill="#F9C62C"/>
<path d="M8.31692 7.27722V7.79702H7.79712V7.27722H8.31692Z" fill="#21201E"/>
<path d="M8.31692 6.75745V7.27725H7.79712V6.75745H8.31692Z" fill="#F9C62C"/>
<path d="M8.31692 6.23761V6.75741H7.79712V6.23761H8.31692Z" fill="#F9C62C"/>
<path d="M8.31692 5.71783V6.23763H7.79712V5.71783H8.31692Z" fill="#F9C62C"/>
<path d="M8.31692 5.19794V5.71774H7.79712V5.19794H8.31692Z" fill="#5FDBFD"/>
<path d="M8.31692 4.67816V5.19796H7.79712V4.67816H8.31692Z" fill="#21201E"/>
<path d="M8.31692 4.15845V4.67825H7.79712V4.15845H8.31692Z" fill="#80EED3"/>
<path d="M8.31692 3.63867V4.15847H7.79712V3.63867H8.31692Z" fill="#21201E"/>
<path d="M8.31692 3.11877V3.63857H7.79712V3.11877H8.31692Z" fill="#80EED3"/>
<path d="M8.31692 2.599V3.1188H7.79712V2.599H8.31692Z" fill="#80EED3"/>
<path d="M8.31692 2.07922V2.59902H7.79712V2.07922H8.31692Z" fill="#F4EBA7"/>
<path d="M8.31692 1.55939V2.07919H7.79712V1.55939H8.31692Z" fill="#21201E"/>
<path d="M8.31692 1.03967V1.55947H7.79712V1.03967H8.31692Z" fill="#21201E"/>
<path d="M8.31692 0.519897V1.0397H7.79712V0.519897H8.31692Z" fill="#21201E"/>
<path d="M7.79714 12.9951V13.5149H7.27734V12.9951H7.79714Z" fill="#21201E"/>
<path d="M7.79714 12.4752V12.995H7.27734V12.4752H7.79714Z" fill="#F9C62C"/>
<path d="M7.79714 11.9554V12.4752H7.27734V11.9554H7.79714Z" fill="#F9C62C"/>
<path d="M7.79714 11.4357V11.9555H7.27734V11.4357H7.79714Z" fill="#F9C62C"/>
<path d="M7.79714 10.9158V11.4356H7.27734V10.9158H7.79714Z" fill="#F9C62C"/>
<path d="M7.79714 10.3961V10.9159H7.27734V10.3961H7.79714Z" fill="#F9C62C"/>
<path d="M7.79714 9.87628V10.3961H7.27734V9.87628H7.79714Z" fill="#F9C62C"/>
<path d="M7.79714 9.35638V9.87618H7.27734V9.35638H7.79714Z" fill="#F9C62C"/>
<path d="M7.79714 8.83661V9.35641H7.27734V8.83661H7.79714Z" fill="#F9C62C"/>
<path d="M7.79714 8.31683V8.83663H7.27734V8.31683H7.79714Z" fill="#F9C62C"/>
<path d="M7.79714 7.797V8.3168H7.27734V7.797H7.79714Z" fill="#F9C62C"/>
<path d="M7.79714 7.27722V7.79702H7.27734V7.27722H7.79714Z" fill="#21201E"/>
<path d="M7.79714 6.75745V7.27725H7.27734V6.75745H7.79714Z" fill="#F9C62C"/>
<path d="M7.79714 6.23761V6.75741H7.27734V6.23761H7.79714Z" fill="#F9C62C"/>
<path d="M7.79714 5.71783V6.23763H7.27734V5.71783H7.79714Z" fill="#F9C62C"/>
<path d="M7.79714 5.19794V5.71774H7.27734V5.19794H7.79714Z" fill="#5FDBFD"/>
<path d="M7.79714 4.67816V5.19796H7.27734V4.67816H7.79714Z" fill="#21201E"/>
<path d="M7.79714 4.15845V4.67825H7.27734V4.15845H7.79714Z" fill="#21201E"/>
<path d="M7.79714 3.63867V4.15847H7.27734V3.63867H7.79714Z" fill="#80EED3"/>
<path d="M7.79714 3.11877V3.63857H7.27734V3.11877H7.79714Z" fill="#80EED3"/>
<path d="M7.79714 2.599V3.1188H7.27734V2.599H7.79714Z" fill="#21201E"/>
<path d="M7.79714 2.07922V2.59902H7.27734V2.07922H7.79714Z" fill="#21201E"/>
<path d="M7.79714 1.55939V2.07919H7.27734V1.55939H7.79714Z" fill="#21201E"/>
<path d="M7.27712 12.9951V13.5149H6.75732V12.9951H7.27712Z" fill="#21201E"/>
<path d="M7.27712 12.4752V12.995H6.75732V12.4752H7.27712Z" fill="#21201E"/>
<path d="M7.27712 11.9554V12.4752H6.75732V11.9554H7.27712Z" fill="#21201E"/>
<path d="M7.27712 11.4357V11.9555H6.75732V11.4357H7.27712Z" fill="#21201E"/>
<path d="M7.27712 10.9158V11.4356H6.75732V10.9158H7.27712Z" fill="#21201E"/>
<path d="M7.27712 10.3961V10.9159H6.75732V10.3961H7.27712Z" fill="#21201E"/>
<path d="M7.27712 9.87628V10.3961H6.75732V9.87628H7.27712Z" fill="#21201E"/>
<path d="M7.27712 9.35638V9.87618H6.75732V9.35638H7.27712Z" fill="#21201E"/>
<path d="M7.27712 8.83661V9.35641H6.75732V8.83661H7.27712Z" fill="#21201E"/>
<path d="M7.27712 8.31683V8.83663H6.75732V8.31683H7.27712Z" fill="#21201E"/>
<path d="M7.27712 7.797V8.3168H6.75732V7.797H7.27712Z" fill="#21201E"/>
<path d="M7.27712 7.27722V7.79702H6.75732V7.27722H7.27712Z" fill="#21201E"/>
<path d="M7.27712 6.75745V7.27725H6.75732V6.75745H7.27712Z" fill="#21201E"/>
<path d="M7.27712 6.23761V6.75741H6.75732V6.23761H7.27712Z" fill="#21201E"/>
<path d="M7.27712 5.71783V6.23763H6.75732V5.71783H7.27712Z" fill="#21201E"/>
<path d="M7.27712 5.19794V5.71774H6.75732V5.19794H7.27712Z" fill="#21201E"/>
<path d="M7.27712 4.67816V5.19796H6.75732V4.67816H7.27712Z" fill="#21201E"/>
<path d="M7.27712 4.15845V4.67825H6.75732V4.15845H7.27712Z" fill="#21201E"/>
<path d="M7.27712 3.63867V4.15847H6.75732V3.63867H7.27712Z" fill="#21201E"/>
<path d="M7.27712 3.11877V3.63857H6.75732V3.11877H7.27712Z" fill="#21201E"/>
<path d="M7.27712 2.599V3.1188H6.75732V2.599H7.27712Z" fill="#21201E"/>
<path d="M6.75735 12.9951V13.5149H6.23755V12.9951H6.75735Z" fill="#21201E"/>
<path d="M6.75735 12.4752V12.995H6.23755V12.4752H6.75735Z" fill="#F4EBA7"/>
<path d="M6.75735 11.9554V12.4752H6.23755V11.9554H6.75735Z" fill="#F4EBA7"/>
<path d="M6.75735 11.4357V11.9555H6.23755V11.4357H6.75735Z" fill="#F4EBA7"/>
<path d="M6.75735 10.9158V11.4356H6.23755V10.9158H6.75735Z" fill="#F4EBA7"/>
<path d="M6.75735 10.3961V10.9159H6.23755V10.3961H6.75735Z" fill="#F4EBA7"/>
<path d="M6.75735 9.87628V10.3961H6.23755V9.87628H6.75735Z" fill="#F4EBA7"/>
<path d="M6.75735 9.35638V9.87618H6.23755V9.35638H6.75735Z" fill="#80EED3"/>
<path d="M6.75735 8.83661V9.35641H6.23755V8.83661H6.75735Z" fill="#80EED3"/>
<path d="M6.75735 8.31683V8.83663H6.23755V8.31683H6.75735Z" fill="#80EED3"/>
<path d="M6.75735 7.797V8.3168H6.23755V7.797H6.75735Z" fill="#80EED3"/>
<path d="M6.75735 7.27722V7.79702H6.23755V7.27722H6.75735Z" fill="#21201E"/>
<path d="M6.75735 6.75745V7.27725H6.23755V6.75745H6.75735Z" fill="#80EED3"/>
<path d="M6.75735 6.23761V6.75741H6.23755V6.23761H6.75735Z" fill="#F4EBA7"/>
<path d="M6.75735 5.71783V6.23763H6.23755V5.71783H6.75735Z" fill="#F4EBA7"/>
<path d="M6.75735 5.19794V5.71774H6.23755V5.19794H6.75735Z" fill="#F4EBA7"/>
<path d="M6.75735 4.67816V5.19796H6.23755V4.67816H6.75735Z" fill="#21201E"/>
<path d="M6.75735 4.15845V4.67825H6.23755V4.15845H6.75735Z" fill="#F4EBA7"/>
<path d="M6.75735 3.63867V4.15847H6.23755V3.63867H6.75735Z" fill="#F4EBA7"/>
<path d="M6.75735 3.11877V3.63857H6.23755V3.11877H6.75735Z" fill="#21201E"/>
<path d="M6.23782 12.9951V13.5149H5.71802V12.9951H6.23782Z" fill="#21201E"/>
<path d="M6.23782 12.4753V12.9951H5.71802V12.4753H6.23782Z" fill="#F4EBA7"/>
<path d="M6.23782 11.9554V12.4752H5.71802V11.9554H6.23782Z" fill="#F4EBA7"/>
<path d="M6.23782 11.4357V11.9555H5.71802V11.4357H6.23782Z" fill="#F4EBA7"/>
<path d="M6.23782 10.9158V11.4356H5.71802V10.9158H6.23782Z" fill="#F4EBA7"/>
<path d="M6.23782 10.3961V10.9159H5.71802V10.3961H6.23782Z" fill="#F4EBA7"/>
<path d="M6.23782 9.87616V10.396H5.71802V9.87616H6.23782Z" fill="#F4EBA7"/>
<path d="M6.23782 9.35651V9.87631H5.71802V9.35651H6.23782Z" fill="#F4EBA7"/>
<path d="M6.23782 8.83661V9.35641H5.71802V8.83661H6.23782Z" fill="#F4EBA7"/>
<path d="M6.23782 8.31683V8.83663H5.71802V8.31683H6.23782Z" fill="#F4EBA7"/>
<path d="M6.23782 7.797V8.3168H5.71802V7.797H6.23782Z" fill="#80EED3"/>
<path d="M6.23782 7.27722V7.79702H5.71802V7.27722H6.23782Z" fill="#21201E"/>
<path d="M6.23782 6.75745V7.27725H5.71802V6.75745H6.23782Z" fill="#F4EBA7"/>
<path d="M6.23782 6.23761V6.75741H5.71802V6.23761H6.23782Z" fill="#F4EBA7"/>
<path d="M6.23782 5.71783V6.23763H5.71802V5.71783H6.23782Z" fill="#F4EBA7"/>
<path d="M6.23782 5.19806V5.71786H5.71802V5.19806H6.23782Z" fill="#F4EBA7"/>
<path d="M6.23782 4.67822V5.19802H5.71802V4.67822H6.23782Z" fill="#21201E"/>
<path d="M6.23782 4.15845V4.67825H5.71802V4.15845H6.23782Z" fill="#F4EBA7"/>
<path d="M6.23782 3.63867V4.15847H5.71802V3.63867H6.23782Z" fill="#F4EBA7"/>
<path d="M6.23782 3.11877V3.63857H5.71802V3.11877H6.23782Z" fill="#21201E"/>
<path d="M5.71804 12.9951V13.5149H5.19824V12.9951H5.71804Z" fill="#21201E"/>
<path d="M5.71804 12.4752V12.995H5.19824V12.4752H5.71804Z" fill="#F4EBA7"/>
<path d="M5.71804 11.9554V12.4752H5.19824V11.9554H5.71804Z" fill="#F4EBA7"/>
<path d="M5.71804 11.4357V11.9555H5.19824V11.4357H5.71804Z" fill="#F4EBA7"/>
<path d="M5.71804 10.9158V11.4356H5.19824V10.9158H5.71804Z" fill="#F4EBA7"/>
<path d="M5.71804 10.3961V10.9159H5.19824V10.3961H5.71804Z" fill="#F4EBA7"/>
<path d="M5.71804 9.87628V10.3961H5.19824V9.87628H5.71804Z" fill="#F4EBA7"/>
<path d="M5.71804 9.35638V9.87618H5.19824V9.35638H5.71804Z" fill="#F4EBA7"/>
<path d="M5.71804 8.83661V9.35641H5.19824V8.83661H5.71804Z" fill="#F4EBA7"/>
<path d="M5.71804 8.31683V8.83663H5.19824V8.31683H5.71804Z" fill="#F4EBA7"/>
<path d="M5.71804 7.797V8.3168H5.19824V7.797H5.71804Z" fill="#80EED3"/>
<path d="M5.71804 7.27722V7.79702H5.19824V7.27722H5.71804Z" fill="#21201E"/>
<path d="M5.71804 6.75745V7.27725H5.19824V6.75745H5.71804Z" fill="#F4EBA7"/>
<path d="M5.71804 6.23761V6.75741H5.19824V6.23761H5.71804Z" fill="#F4EBA7"/>
<path d="M5.71804 5.71783V6.23763H5.19824V5.71783H5.71804Z" fill="#F4EBA7"/>
<path d="M5.71804 5.19794V5.71774H5.19824V5.19794H5.71804Z" fill="#F4EBA7"/>
<path d="M5.71804 4.67816V5.19796H5.19824V4.67816H5.71804Z" fill="#21201E"/>
<path d="M5.71804 4.15845V4.67825H5.19824V4.15845H5.71804Z" fill="#F4EBA7"/>
<path d="M5.71804 3.63867V4.15847H5.19824V3.63867H5.71804Z" fill="#F4EBA7"/>
<path d="M5.71804 3.11877V3.63857H5.19824V3.11877H5.71804Z" fill="#21201E"/>
<path d="M5.19802 12.9951V13.5149H4.67822V12.9951H5.19802Z" fill="#21201E"/>
<path d="M5.19802 12.4753V12.9951H4.67822V12.4753H5.19802Z" fill="#21201E"/>
<path d="M5.19802 11.9554V12.4752H4.67822V11.9554H5.19802Z" fill="#21201E"/>
<path d="M5.19802 11.4357V11.9555H4.67822V11.4357H5.19802Z" fill="#21201E"/>
<path d="M5.19802 10.9158V11.4356H4.67822V10.9158H5.19802Z" fill="#21201E"/>
<path d="M5.19802 10.3961V10.9159H4.67822V10.3961H5.19802Z" fill="#21201E"/>
<path d="M5.19802 9.87616V10.396H4.67822V9.87616H5.19802Z" fill="#21201E"/>
<path d="M5.19802 9.35651V9.87631H4.67822V9.35651H5.19802Z" fill="#21201E"/>
<path d="M5.19802 8.83661V9.35641H4.67822V8.83661H5.19802Z" fill="#21201E"/>
<path d="M5.19802 8.31683V8.83663H4.67822V8.31683H5.19802Z" fill="#21201E"/>
<path d="M5.19802 7.797V8.3168H4.67822V7.797H5.19802Z" fill="#21201E"/>
<path d="M5.19802 7.27722V7.79702H4.67822V7.27722H5.19802Z" fill="#21201E"/>
<path d="M5.19802 6.75745V7.27725H4.67822V6.75745H5.19802Z" fill="#21201E"/>
<path d="M5.19802 6.23761V6.75741H4.67822V6.23761H5.19802Z" fill="#21201E"/>
<path d="M5.19802 5.71783V6.23763H4.67822V5.71783H5.19802Z" fill="#21201E"/>
<path d="M5.19802 5.19806V5.71786H4.67822V5.19806H5.19802Z" fill="#21201E"/>
<path d="M5.19802 4.67822V5.19802H4.67822V4.67822H5.19802Z" fill="#21201E"/>
<path d="M5.19802 4.15845V4.67825H4.67822V4.15845H5.19802Z" fill="#21201E"/>
<path d="M5.19802 3.63867V4.15847H4.67822V3.63867H5.19802Z" fill="#21201E"/>
<path d="M5.19802 3.11877V3.63857H4.67822V3.11877H5.19802Z" fill="#21201E"/>
<path d="M4.67849 12.9951V13.5149H4.15869V12.9951H4.67849Z" fill="#21201E"/>
<path d="M4.67849 12.4752V12.995H4.15869V12.4752H4.67849Z" fill="#F9C62C"/>
<path d="M4.67849 11.9554V12.4752H4.15869V11.9554H4.67849Z" fill="#F9C62C"/>
<path d="M4.67849 11.4357V11.9555H4.15869V11.4357H4.67849Z" fill="#F9C62C"/>
<path d="M4.67849 10.9158V11.4356H4.15869V10.9158H4.67849Z" fill="#F9C62C"/>
<path d="M4.67849 10.3961V10.9159H4.15869V10.3961H4.67849Z" fill="#F9C62C"/>
<path d="M4.67849 9.87628V10.3961H4.15869V9.87628H4.67849Z" fill="#F9C62C"/>
<path d="M4.67849 9.35638V9.87618H4.15869V9.35638H4.67849Z" fill="#F9C62C"/>
<path d="M4.67849 8.83661V9.35641H4.15869V8.83661H4.67849Z" fill="#F9C62C"/>
<path d="M4.67849 8.31683V8.83663H4.15869V8.31683H4.67849Z" fill="#F9C62C"/>
<path d="M4.67849 7.797V8.3168H4.15869V7.797H4.67849Z" fill="#F9C62C"/>
<path d="M4.67849 7.27722V7.79702H4.15869V7.27722H4.67849Z" fill="#21201E"/>
<path d="M4.67849 6.75745V7.27725H4.15869V6.75745H4.67849Z" fill="#F9C62C"/>
<path d="M4.67849 6.23761V6.75741H4.15869V6.23761H4.67849Z" fill="#F9C62C"/>
<path d="M4.67849 5.71783V6.23763H4.15869V5.71783H4.67849Z" fill="#F9C62C"/>
<path d="M4.67849 5.19794V5.71774H4.15869V5.19794H4.67849Z" fill="#5FDBFD"/>
<path d="M4.67849 4.67816V5.19796H4.15869V4.67816H4.67849Z" fill="#21201E"/>
<path d="M4.67849 4.15845V4.67825H4.15869V4.15845H4.67849Z" fill="#21201E"/>
<path d="M4.67849 3.63867V4.15847H4.15869V3.63867H4.67849Z" fill="#21201E"/>
<path d="M4.67849 3.11877V3.63857H4.15869V3.11877H4.67849Z" fill="#21201E"/>
<path d="M4.67849 2.599V3.1188H4.15869V2.599H4.67849Z" fill="#21201E"/>
<path d="M4.15847 12.9951V13.5149H3.63867V12.9951H4.15847Z" fill="#21201E"/>
<path d="M4.15847 12.4753V12.9951H3.63867V12.4753H4.15847Z" fill="#F9C62C"/>
<path d="M4.15847 11.9554V12.4752H3.63867V11.9554H4.15847Z" fill="#F9C62C"/>
<path d="M4.15847 11.4357V11.9555H3.63867V11.4357H4.15847Z" fill="#F9C62C"/>
<path d="M4.15847 10.9158V11.4356H3.63867V10.9158H4.15847Z" fill="#F9C62C"/>
<path d="M4.15847 10.3961V10.9159H3.63867V10.3961H4.15847Z" fill="#F9C62C"/>
<path d="M4.15847 9.87616V10.396H3.63867V9.87616H4.15847Z" fill="#F9C62C"/>
<path d="M4.15847 9.35651V9.87631H3.63867V9.35651H4.15847Z" fill="#F9C62C"/>
<path d="M4.15847 8.83661V9.35641H3.63867V8.83661H4.15847Z" fill="#F9C62C"/>
<path d="M4.15847 8.31683V8.83663H3.63867V8.31683H4.15847Z" fill="#F9C62C"/>
<path d="M4.15847 7.797V8.3168H3.63867V7.797H4.15847Z" fill="#F9C62C"/>
<path d="M4.15847 7.27722V7.79702H3.63867V7.27722H4.15847Z" fill="#21201E"/>
<path d="M4.15847 6.75745V7.27725H3.63867V6.75745H4.15847Z" fill="#F9C62C"/>
<path d="M4.15847 6.23761V6.75741H3.63867V6.23761H4.15847Z" fill="#F9C62C"/>
<path d="M4.15847 5.71783V6.23763H3.63867V5.71783H4.15847Z" fill="#F9C62C"/>
<path d="M4.15847 5.19806V5.71786H3.63867V5.19806H4.15847Z" fill="#5FDBFD"/>
<path d="M4.15847 4.67822V5.19802H3.63867V4.67822H4.15847Z" fill="#21201E"/>
<path d="M4.15847 4.15845V4.67825H3.63867V4.15845H4.15847Z" fill="#21201E"/>
<path d="M4.15847 3.63867V4.15847H3.63867V3.63867H4.15847Z" fill="#80EED3"/>
<path d="M4.15847 3.11877V3.63857H3.63867V3.11877H4.15847Z" fill="#80EED3"/>
<path d="M4.15847 2.599V3.1188H3.63867V2.599H4.15847Z" fill="#F4EBA7"/>
<path d="M4.15847 2.07922V2.59902H3.63867V2.07922H4.15847Z" fill="#21201E"/>
<path d="M4.15847 1.55939V2.07919H3.63867V1.55939H4.15847Z" fill="#21201E"/>
<path d="M3.63845 12.9951V13.5149H3.11865V12.9951H3.63845Z" fill="#21201E"/>
<path d="M3.63845 12.4752V12.995H3.11865V12.4752H3.63845Z" fill="#F9C62C"/>
<path d="M3.63845 11.9554V12.4752H3.11865V11.9554H3.63845Z" fill="#F9C62C"/>
<path d="M3.63845 11.4357V11.9555H3.11865V11.4357H3.63845Z" fill="#F9C62C"/>
<path d="M3.63845 10.9158V11.4356H3.11865V10.9158H3.63845Z" fill="#F9C62C"/>
<path d="M3.63845 10.3961V10.9159H3.11865V10.3961H3.63845Z" fill="#F9C62C"/>
<path d="M3.63845 9.87628V10.3961H3.11865V9.87628H3.63845Z" fill="#F9C62C"/>
<path d="M3.63845 9.35638V9.87618H3.11865V9.35638H3.63845Z" fill="#F9C62C"/>
<path d="M3.63845 8.83661V9.35641H3.11865V8.83661H3.63845Z" fill="#F9C62C"/>
<path d="M3.63845 8.31683V8.83663H3.11865V8.31683H3.63845Z" fill="#F9C62C"/>
<path d="M3.63845 7.797V8.3168H3.11865V7.797H3.63845Z" fill="#F9C62C"/>
<path d="M3.63845 7.27722V7.79702H3.11865V7.27722H3.63845Z" fill="#21201E"/>
<path d="M3.63845 6.75745V7.27725H3.11865V6.75745H3.63845Z" fill="#F9C62C"/>
<path d="M3.63845 6.23761V6.75741H3.11865V6.23761H3.63845Z" fill="#F9C62C"/>
<path d="M3.63845 5.71783V6.23763H3.11865V5.71783H3.63845Z" fill="#F9C62C"/>
<path d="M3.63845 5.19794V5.71774H3.11865V5.19794H3.63845Z" fill="#5FDBFD"/>
<path d="M3.63845 4.67816V5.19796H3.11865V4.67816H3.63845Z" fill="#21201E"/>
<path d="M3.63845 4.15845V4.67825H3.11865V4.15845H3.63845Z" fill="#80EED3"/>
<path d="M3.63845 3.63867V4.15847H3.11865V3.63867H3.63845Z" fill="#21201E"/>
<path d="M3.63845 3.11877V3.63857H3.11865V3.11877H3.63845Z" fill="#80EED3"/>
<path d="M3.63845 2.599V3.1188H3.11865V2.599H3.63845Z" fill="#80EED3"/>
<path d="M3.63845 2.07922V2.59902H3.11865V2.07922H3.63845Z" fill="#F4EBA7"/>
<path d="M3.63845 1.55939V2.07919H3.11865V1.55939H3.63845Z" fill="#21201E"/>
<path d="M3.63845 1.03967V1.55947H3.11865V1.03967H3.63845Z" fill="#21201E"/>
<path d="M3.11917 12.9951V13.5149H2.59937V12.9951H3.11917Z" fill="#21201E"/>
<path d="M3.11917 12.4753V12.9951H2.59937V12.4753H3.11917Z" fill="#F9C62C"/>
<path d="M3.11917 11.9554V12.4752H2.59937V11.9554H3.11917Z" fill="#F9C62C"/>
<path d="M3.11917 11.4357V11.9555H2.59937V11.4357H3.11917Z" fill="#F9C62C"/>
<path d="M3.11917 10.9158V11.4356H2.59937V10.9158H3.11917Z" fill="#F9C62C"/>
<path d="M3.11917 10.3961V10.9159H2.59937V10.3961H3.11917Z" fill="#F9C62C"/>
<path d="M3.11917 9.87616V10.396H2.59937V9.87616H3.11917Z" fill="#F9C62C"/>
<path d="M3.11917 9.35651V9.87631H2.59937V9.35651H3.11917Z" fill="#F9C62C"/>
<path d="M3.11917 8.83661V9.35641H2.59937V8.83661H3.11917Z" fill="#F9C62C"/>
<path d="M3.11917 8.31683V8.83663H2.59937V8.31683H3.11917Z" fill="#F9C62C"/>
<path d="M3.11917 7.797V8.3168H2.59937V7.797H3.11917Z" fill="#F9C62C"/>
<path d="M3.11917 7.27722V7.79702H2.59937V7.27722H3.11917Z" fill="#21201E"/>
<path d="M3.11917 6.75745V7.27725H2.59937V6.75745H3.11917Z" fill="#F9C62C"/>
<path d="M3.11917 6.23761V6.75741H2.59937V6.23761H3.11917Z" fill="#F9C62C"/>
<path d="M3.11917 5.71783V6.23763H2.59937V5.71783H3.11917Z" fill="#F9C62C"/>
<path d="M3.11917 5.19806V5.71786H2.59937V5.19806H3.11917Z" fill="#5FDBFD"/>
<path d="M3.11917 4.67822V5.19802H2.59937V4.67822H3.11917Z" fill="#21201E"/>
<path d="M3.11917 4.15845V4.67825H2.59937V4.15845H3.11917Z" fill="#80EED3"/>
<path d="M3.11917 3.63867V4.15847H2.59937V3.63867H3.11917Z" fill="#80EED3"/>
<path d="M3.11917 3.11877V3.63857H2.59937V3.11877H3.11917Z" fill="#21201E"/>
<path d="M3.11917 2.599V3.1188H2.59937V2.599H3.11917Z" fill="#80EED3"/>
<path d="M3.11917 2.07922V2.59902H2.59937V2.07922H3.11917Z" fill="#F4EBA7"/>
<path d="M3.11917 1.55939V2.07919H2.59937V1.55939H3.11917Z" fill="#F4EBA7"/>
<path d="M3.11917 1.03967V1.55947H2.59937V1.03967H3.11917Z" fill="#21201E"/>
<path d="M2.59915 12.9951V13.5149H2.07935V12.9951H2.59915Z" fill="#21201E"/>
<path d="M2.59915 12.4753V12.9951H2.07935V12.4753H2.59915Z" fill="#F9C62C"/>
<path d="M2.59915 11.9554V12.4752H2.07935V11.9554H2.59915Z" fill="#F9C62C"/>
<path d="M2.59915 11.4357V11.9555H2.07935V11.4357H2.59915Z" fill="#F9C62C"/>
<path d="M2.59915 10.9158V11.4356H2.07935V10.9158H2.59915Z" fill="#F9C62C"/>
<path d="M2.59915 10.3961V10.9159H2.07935V10.3961H2.59915Z" fill="#F9C62C"/>
<path d="M2.59915 9.87616V10.396H2.07935V9.87616H2.59915Z" fill="#F9C62C"/>
<path d="M2.59915 9.35651V9.87631H2.07935V9.35651H2.59915Z" fill="#F9C62C"/>
<path d="M2.59915 8.83661V9.35641H2.07935V8.83661H2.59915Z" fill="#F9C62C"/>
<path d="M2.59915 8.31683V8.83663H2.07935V8.31683H2.59915Z" fill="#F9C62C"/>
<path d="M2.59915 7.797V8.3168H2.07935V7.797H2.59915Z" fill="#F9C62C"/>
<path d="M2.59915 7.27722V7.79702H2.07935V7.27722H2.59915Z" fill="#21201E"/>
<path d="M2.59915 6.75745V7.27725H2.07935V6.75745H2.59915Z" fill="#F9C62C"/>
<path d="M2.59915 6.23761V6.75741H2.07935V6.23761H2.59915Z" fill="#F9C62C"/>
<path d="M2.59915 5.71783V6.23763H2.07935V5.71783H2.59915Z" fill="#F9C62C"/>
<path d="M2.59915 5.19806V5.71786H2.07935V5.19806H2.59915Z" fill="#5FDBFD"/>
<path d="M2.59915 4.67822V5.19802H2.07935V4.67822H2.59915Z" fill="#21201E"/>
<path d="M2.59915 4.15845V4.67825H2.07935V4.15845H2.59915Z" fill="#F4EBA7"/>
<path d="M2.59915 3.63867V4.15847H2.07935V3.63867H2.59915Z" fill="#80EED3"/>
<path d="M2.59915 3.11877V3.63857H2.07935V3.11877H2.59915Z" fill="#80EED3"/>
<path d="M2.59915 2.599V3.1188H2.07935V2.599H2.59915Z" fill="#80EED3"/>
<path d="M2.59915 2.07922V2.59902H2.07935V2.07922H2.59915Z" fill="#F4EBA7"/>
<path d="M2.59915 1.55939V2.07919H2.07935V1.55939H2.59915Z" fill="#F4EBA7"/>
<path d="M2.59915 1.03967V1.55947H2.07935V1.03967H2.59915Z" fill="#21201E"/>
<path d="M2.07937 12.9951V13.5149H1.55957V12.9951H2.07937Z" fill="#21201E"/>
<path d="M2.07937 12.4752V12.995H1.55957V12.4752H2.07937Z" fill="#F9C62C"/>
<path d="M2.07937 11.9554V12.4752H1.55957V11.9554H2.07937Z" fill="#F9C62C"/>
<path d="M2.07937 11.4357V11.9555H1.55957V11.4357H2.07937Z" fill="#F9C62C"/>
<path d="M2.07937 10.9158V11.4356H1.55957V10.9158H2.07937Z" fill="#F9C62C"/>
<path d="M2.07937 10.3961V10.9159H1.55957V10.3961H2.07937Z" fill="#F9C62C"/>
<path d="M2.07937 9.87628V10.3961H1.55957V9.87628H2.07937Z" fill="#F9C62C"/>
<path d="M2.07937 9.35638V9.87618H1.55957V9.35638H2.07937Z" fill="#F9C62C"/>
<path d="M2.07937 8.83661V9.35641H1.55957V8.83661H2.07937Z" fill="#F9C62C"/>
<path d="M2.07937 8.31683V8.83663H1.55957V8.31683H2.07937Z" fill="#F9C62C"/>
<path d="M2.07937 7.797V8.3168H1.55957V7.797H2.07937Z" fill="#F9C62C"/>
<path d="M2.07937 7.27722V7.79702H1.55957V7.27722H2.07937Z" fill="#21201E"/>
<path d="M2.07937 6.75745V7.27725H1.55957V6.75745H2.07937Z" fill="#F9C62C"/>
<path d="M2.07937 6.23761V6.75741H1.55957V6.23761H2.07937Z" fill="#F9C62C"/>
<path d="M2.07937 5.71783V6.23763H1.55957V5.71783H2.07937Z" fill="#F9C62C"/>
<path d="M2.07937 5.19794V5.71774H1.55957V5.19794H2.07937Z" fill="#5FDBFD"/>
<path d="M2.07937 4.67816V5.19796H1.55957V4.67816H2.07937Z" fill="#21201E"/>
<path d="M2.07937 4.15845V4.67825H1.55957V4.15845H2.07937Z" fill="#F4EBA7"/>
<path d="M2.07937 3.63867V4.15847H1.55957V3.63867H2.07937Z" fill="#F4EBA7"/>
<path d="M2.07937 3.11877V3.63857H1.55957V3.11877H2.07937Z" fill="#F4EBA7"/>
<path d="M2.07937 2.599V3.1188H1.55957V2.599H2.07937Z" fill="#F4EBA7"/>
<path d="M2.07937 2.07922V2.59902H1.55957V2.07922H2.07937Z" fill="#F4EBA7"/>
<path d="M2.07937 1.55939V2.07919H1.55957V1.55939H2.07937Z" fill="#F4EBA7"/>
<path d="M2.07937 1.03967V1.55947H1.55957V1.03967H2.07937Z" fill="#21201E"/>
<path d="M1.55959 12.9951V13.5149H1.03979V12.9951H1.55959Z" fill="#21201E"/>
<path d="M1.55959 12.4753V12.9951H1.03979V12.4753H1.55959Z" fill="#21201E"/>
<path d="M1.55959 11.9554V12.4752H1.03979V11.9554H1.55959Z" fill="#21201E"/>
<path d="M1.55959 11.4357V11.9555H1.03979V11.4357H1.55959Z" fill="#21201E"/>
<path d="M1.55959 10.9158V11.4356H1.03979V10.9158H1.55959Z" fill="#21201E"/>
<path d="M1.55959 10.3961V10.9159H1.03979V10.3961H1.55959Z" fill="#21201E"/>
<path d="M1.55959 9.87616V10.396H1.03979V9.87616H1.55959Z" fill="#21201E"/>
<path d="M1.55959 9.35651V9.87631H1.03979V9.35651H1.55959Z" fill="#21201E"/>
<path d="M1.55959 8.83661V9.35641H1.03979V8.83661H1.55959Z" fill="#21201E"/>
<path d="M1.55959 8.31683V8.83663H1.03979V8.31683H1.55959Z" fill="#21201E"/>
<path d="M1.55959 7.797V8.3168H1.03979V7.797H1.55959Z" fill="#21201E"/>
<path d="M1.55959 7.27722V7.79702H1.03979V7.27722H1.55959Z" fill="#21201E"/>
<path d="M1.55959 6.75745V7.27725H1.03979V6.75745H1.55959Z" fill="#F9C62C"/>
<path d="M1.55959 6.23761V6.75741H1.03979V6.23761H1.55959Z" fill="#F9C62C"/>
<path d="M1.55959 5.71783V6.23763H1.03979V5.71783H1.55959Z" fill="#F9C62C"/>
<path d="M1.55959 5.19806V5.71786H1.03979V5.19806H1.55959Z" fill="#5FDBFD"/>
<path d="M1.55959 4.67822V5.19802H1.03979V4.67822H1.55959Z" fill="#21201E"/>
<path d="M1.55959 4.15845V4.67825H1.03979V4.15845H1.55959Z" fill="#21201E"/>
<path d="M1.55959 3.63867V4.15847H1.03979V3.63867H1.55959Z" fill="#F4EBA7"/>
<path d="M1.55959 3.11877V3.63857H1.03979V3.11877H1.55959Z" fill="#F4EBA7"/>
<path d="M1.55959 2.599V3.1188H1.03979V2.599H1.55959Z" fill="#F4EBA7"/>
<path d="M1.55959 2.07922V2.59902H1.03979V2.07922H1.55959Z" fill="#F4EBA7"/>
<path d="M1.55959 1.55939V2.07919H1.03979V1.55939H1.55959Z" fill="#F4EBA7"/>
<path d="M1.55959 1.03967V1.55947H1.03979V1.03967H1.55959Z" fill="#21201E"/>
<path d="M1.04006 6.75745V7.27725H0.520264V6.75745H1.04006Z" fill="#21201E"/>
<path d="M1.04006 6.23761V6.75741H0.520264V6.23761H1.04006Z" fill="#21201E"/>
<path d="M1.04006 5.71783V6.23763H0.520264V5.71783H1.04006Z" fill="#21201E"/>
<path d="M1.04006 5.19794V5.71774H0.520264V5.19794H1.04006Z" fill="#21201E"/>
<path d="M1.04006 4.15845V4.67825H0.520264V4.15845H1.04006Z" fill="#21201E"/>
<path d="M1.04006 3.63867V4.15847H0.520264V3.63867H1.04006Z" fill="#F4EBA7"/>
<path d="M1.04006 3.11877V3.63857H0.520264V3.11877H1.04006Z" fill="#F4EBA7"/>
<path d="M1.04006 2.599V3.1188H0.520264V2.599H1.04006Z" fill="#F4EBA7"/>
<path d="M1.04006 2.07922V2.59902H0.520264V2.07922H1.04006Z" fill="#21201E"/>
<path d="M1.04006 1.55939V2.07919H0.520264V1.55939H1.04006Z" fill="#21201E"/>
<path d="M0.5198 4.15845V4.67825H0V4.15845H0.5198Z" fill="#21201E"/>
<path d="M0.5198 3.63867V4.15847H0V3.63867H0.5198Z" fill="#21201E"/>
<path d="M0.5198 3.11877V3.63857H0V3.11877H0.5198Z" fill="#21201E"/>
<path d="M0.5198 2.599V3.1188H0V2.599H0.5198Z" fill="#21201E"/>
<path d="M0.5198 2.07922V2.59902H0V2.07922H0.5198Z" fill="#21201E"/>
</svg>
