<svg width="17" height="18" viewBox="0 0 17 18" fill="none" xmlns="http://www.w3.org/2000/svg">
<path d="M7.72883 2.377H5.16486C5.01831 2.38673 4.87308 2.34342 4.75581 2.25499C4.66044 2.17411 4.59095 2.06703 4.55585 1.94701C4.51617 1.8106 4.49695 1.66901 4.49885 1.52696C4.49812 1.37978 4.5108 1.23287 4.53681 1.088C4.5515 0.937054 4.57694 0.787346 4.61286 0.640002C4.6437 0.495123 4.6981 0.35627 4.77387 0.228991C4.83544 0.123531 4.93304 0.0439531 5.04877 0.00499201C5.1211 -0.0104605 5.19598 -0.0100754 5.26813 0.00615168C5.34029 0.0223788 5.40812 0.0540567 5.46687 0.0989861C5.65687 0.210986 5.87219 0.332333 6.11286 0.463C6.35353 0.593666 6.58681 0.724301 6.81281 0.854968C7.04081 0.988301 7.2528 1.10668 7.4488 1.21001C7.6448 1.31334 7.79351 1.3973 7.89484 1.46196C8.00953 1.53666 8.10678 1.63524 8.17988 1.75096C8.23918 1.83915 8.26596 1.94523 8.25581 2.05101C8.24864 2.09847 8.23137 2.14381 8.20515 2.18401C8.17892 2.22421 8.14438 2.2583 8.10383 2.28398C7.99105 2.35204 7.86034 2.38447 7.72883 2.377ZM9.21088 2.35796H11.7558C11.9019 2.36773 12.0466 2.32483 12.1638 2.23699C12.2591 2.1561 12.3287 2.04903 12.3638 1.929C12.4037 1.79263 12.4229 1.65102 12.4208 1.50896C12.4208 1.35363 12.4145 1.20733 12.4018 1.06999C12.3768 0.932994 12.3479 0.786969 12.3159 0.630969C12.2891 0.48975 12.2375 0.354388 12.1638 0.231005C12.1021 0.125605 12.0046 0.0460478 11.8889 0.00700617C11.8177 -0.00921812 11.744 -0.0109458 11.6722 0.00194025C11.6004 0.0148263 11.5318 0.0420131 11.4708 0.0819573C11.2808 0.193957 11.0654 0.315304 10.8248 0.445971C10.5841 0.576638 10.3469 0.707333 10.1129 0.838C9.87886 0.971333 9.66353 1.08965 9.46686 1.19298C9.32017 1.26937 9.17764 1.3535 9.03986 1.44499C8.91864 1.51654 8.81584 1.61553 8.73981 1.734C8.68087 1.82231 8.65441 1.92832 8.66486 2.03398C8.67196 2.0816 8.68918 2.12716 8.7154 2.16753C8.74162 2.2079 8.77622 2.24215 8.81684 2.26799C8.93647 2.33608 9.07356 2.36735 9.21088 2.35796ZM7.46381 3.59001H1.95588C1.67735 3.55433 1.39559 3.62577 1.16779 3.78997C1.03162 3.96843 0.967161 4.19135 0.986884 4.41497V6.05797C0.967298 6.30465 1.03837 6.55 1.18684 6.74797C1.29638 6.83636 1.42266 6.90175 1.55805 6.94023C1.69345 6.97872 1.83514 6.98952 1.9748 6.97197H7.46381V3.59001ZM9.53388 3.59001H14.9658C15.2611 3.55515 15.5582 3.63892 15.7918 3.82299C15.948 4.00726 16.0265 4.24498 16.0108 4.48601V6.09099C16.0304 6.32934 15.959 6.56628 15.8109 6.75402C15.5866 6.92637 15.3035 7.00356 15.0228 6.96898H9.53278L9.53388 3.59001ZM7.46381 7.95799H1.63288V15.014C1.61641 15.2845 1.65686 15.5556 1.75178 15.8095C1.84669 16.0634 1.99387 16.2945 2.18378 16.488C2.66546 16.8747 3.27715 17.0619 3.89277 17.011H7.46381V7.95799ZM9.53388 7.95799H15.3458V14.958C15.3631 15.5105 15.1657 16.0481 14.7949 16.458C14.5649 16.6591 14.2966 16.8115 14.0062 16.906C13.7157 17.0005 13.409 17.0352 13.1048 17.008H9.53388V7.95799Z" fill="currentColor"/>
</svg>
