<svg width="13" height="13" viewBox="0 0 13 13" fill="none" xmlns="http://www.w3.org/2000/svg">
<rect x="2.55078" y="0.851501" width="1.27521" height="0.620097" fill="#010004"/>
<rect x="8.92725" y="0.851501" width="1.27521" height="0.620097" fill="#010004"/>
<rect x="7.65161" y="1.47162" width="1.27521" height="0.620097" fill="#010004"/>
<rect x="3.82617" y="1.47162" width="1.27521" height="0.620097" fill="#010004"/>
<rect x="7.01416" y="2.0918" width="0.637605" height="0.620097" fill="#010004"/>
<rect x="5.10132" y="2.0918" width="0.637605" height="0.620097" fill="#010004"/>
<rect x="1.91284" y="1.47162" width="0.637605" height="0.620097" fill="#010004"/>
<rect x="1.27539" y="2.0918" width="0.637605" height="0.620097" fill="#010004"/>
<rect x="0.637695" y="2.71185" width="0.637605" height="0.620097" fill="#010004"/>
<rect x="10.2024" y="1.47162" width="0.637605" height="0.620097" fill="#010004"/>
<rect x="10.8396" y="2.0918" width="0.637605" height="0.620097" fill="#010004"/>
<rect x="1.27539" y="7.05267" width="0.637605" height="0.620097" fill="#010004"/>
<rect x="2.55078" y="8.91309" width="0.637605" height="0.620097" fill="#010004"/>
<rect x="3.18799" y="9.53314" width="0.637605" height="0.620097" fill="#010004"/>
<rect x="3.82617" y="10.1532" width="0.637605" height="0.620097" fill="#010004"/>
<rect x="10.8396" y="7.05267" width="0.637605" height="0.620097" fill="#010004"/>
<rect x="9.56445" y="8.91309" width="0.637605" height="0.620097" fill="#010004"/>
<rect x="8.92725" y="9.53314" width="0.637605" height="0.620097" fill="#010004"/>
<rect x="8.28931" y="10.1532" width="0.637605" height="0.620097" fill="#010004"/>
<rect x="7.65161" y="10.7733" width="0.637605" height="0.620097" fill="#010004"/>
<rect x="7.01416" y="11.3934" width="0.637605" height="0.620097" fill="#010004"/>
<rect x="5.73853" y="12.0136" width="1.27521" height="0.620097" fill="#010004"/>
<rect x="4.46338" y="10.7733" width="0.637605" height="0.620097" fill="#010004"/>
<rect x="5.10132" y="11.3934" width="0.637605" height="0.620097" fill="#010004"/>
<rect x="11.4775" y="2.71185" width="0.637605" height="0.620097" fill="#010004"/>
<rect x="0.637695" y="5.81238" width="0.637605" height="1.24019" fill="#010004"/>
<rect x="11.4775" y="5.81238" width="0.637605" height="1.24019" fill="#010004"/>
<rect x="1.91284" y="7.67285" width="0.637605" height="1.24019" fill="#010004"/>
<rect x="10.2024" y="7.67285" width="0.637605" height="1.24019" fill="#010004"/>
<rect x="5.73853" y="2.71185" width="1.27521" height="0.620097" fill="#010004"/>
<rect x="1.27539" y="2.71185" width="4.46337" height="0.620116" fill="#9C3748"/>
<rect x="0.637695" y="3.33203" width="11.4772" height="0.620116" fill="#9C3748"/>
<rect x="0.637695" y="3.95203" width="11.4772" height="0.620116" fill="#9C3748"/>
<rect x="0.637695" y="4.57214" width="11.4772" height="0.620116" fill="#9C3748"/>
<rect x="0.637695" y="5.19232" width="11.4772" height="0.620116" fill="#C03C49"/>
<rect x="1.91284" y="7.05267" width="8.92675" height="0.620116" fill="#C03C49"/>
<rect x="3.18799" y="8.91309" width="6.37625" height="0.620116" fill="#C03C49"/>
<rect x="3.82617" y="9.53314" width="5.101" height="0.620116" fill="#C03C49"/>
<rect x="4.46338" y="10.1532" width="3.82575" height="0.620116" fill="#C03C49"/>
<rect x="5.10132" y="10.7733" width="2.55042" height="0.620097" fill="#C03C49"/>
<rect x="5.73853" y="11.3934" width="1.27521" height="0.620097" fill="#C03C49"/>
<rect x="1.27539" y="5.81238" width="10.202" height="1.24023" fill="#C03C49"/>
<rect x="2.55078" y="7.67285" width="7.6515" height="1.24023" fill="#C03C49"/>
<rect x="1.91284" y="2.0918" width="3.18803" height="0.620097" fill="#9C3748"/>
<rect x="2.55078" y="1.47162" width="1.27521" height="0.620097" fill="#9C3748"/>
<rect x="7.01416" y="2.71185" width="4.46337" height="0.620116" fill="#9C3748"/>
<rect x="7.65161" y="2.0918" width="3.18803" height="0.620097" fill="#9C3748"/>
<rect x="8.92725" y="1.47162" width="1.27521" height="0.620097" fill="#9C3748"/>
<rect x="5.73853" y="2.71185" width="1.27521" height="0.620097" fill="#010004"/>
<rect width="0.637605" height="2.48039" transform="matrix(-1 0 0 1 0.637695 3.33203)" fill="#010004"/>
<rect width="0.637605" height="2.48039" transform="matrix(-1 0 0 1 12.7524 3.33203)" fill="#010004"/>
</svg>
