<svg width="22" height="22" viewBox="0 0 22 22" fill="none" xmlns="http://www.w3.org/2000/svg">
<path d="M11.9825 7.31174L12.3365 8.05972C12.3738 8.14028 12.4305 8.21044 12.5013 8.26398C12.5721 8.31752 12.6549 8.35279 12.7425 8.36673L13.5355 8.48672C13.6368 8.5055 13.7311 8.55153 13.8082 8.61984C13.8853 8.68816 13.9424 8.77619 13.9732 8.87448C14.0041 8.97277 14.0075 9.07758 13.9832 9.1777C13.959 9.27782 13.9079 9.36944 13.8355 9.44272L13.2616 10.0247C13.198 10.0898 13.1508 10.1692 13.1239 10.2561C13.0969 10.343 13.091 10.4351 13.1065 10.5247L13.2415 11.3467C13.2621 11.4472 13.2538 11.5514 13.2176 11.6474C13.1814 11.7434 13.1188 11.8271 13.037 11.8889C12.9551 11.9508 12.8577 11.9882 12.7555 11.9968C12.6533 12.0054 12.5506 11.985 12.4596 11.9377L11.7496 11.5497C11.6729 11.5078 11.587 11.4858 11.4996 11.4858C11.4122 11.4858 11.3263 11.5078 11.2496 11.5497L10.5396 11.9377C10.4486 11.9845 10.346 12.0047 10.244 11.9959C10.142 11.9871 10.0447 11.9496 9.96298 11.8879C9.8813 11.8261 9.81865 11.7426 9.78232 11.6469C9.74599 11.5512 9.73749 11.4471 9.75766 11.3467L9.89267 10.5247C9.90833 10.4351 9.90229 10.343 9.87534 10.256C9.84839 10.1691 9.80127 10.0898 9.73764 10.0247L9.16367 9.44272C9.09127 9.36944 9.04021 9.27782 9.01596 9.1777C8.99171 9.07758 8.99513 8.97277 9.02597 8.87448C9.05682 8.77619 9.11391 8.68816 9.19101 8.61984C9.26812 8.55153 9.36243 8.5055 9.46372 8.48672L10.2567 8.36673C10.3443 8.35271 10.4271 8.31738 10.4979 8.26385C10.5687 8.21033 10.6253 8.14022 10.6627 8.05972L11.0167 7.31174C11.0587 7.21881 11.1266 7.13996 11.2123 7.08466C11.2979 7.02935 11.3976 6.99994 11.4996 6.99994C11.6016 6.99994 11.7013 7.02935 11.787 7.08466C11.8726 7.13996 11.9405 7.21881 11.9825 7.31174Z" fill="currentColor"/>
<path d="M17 18.0007L11.7538 14.4252L6 18.0007V6.51872C6 5.10865 6.97308 4.00073 8.11538 4.00073H14.8846C16.0692 4.00073 17 5.15901 17 6.51872V18.0007Z" stroke="currentColor" stroke-width="1.2" stroke-miterlimit="10"/>
</svg>
