<svg width="18" height="18" viewBox="0 0 18 18" fill="none" xmlns="http://www.w3.org/2000/svg">
<path d="M9 17C13.4183 17 17 13.4183 17 9C17 4.58172 13.4183 1 9 1C4.58172 1 1 4.58172 1 9C1 13.4183 4.58172 17 9 17Z" stroke="currentColor" stroke-width="1.2"/>
<path d="M8 12V10H6C5.73478 10 5.48038 9.89463 5.29285 9.70709C5.10531 9.51956 5 9.26522 5 9C5 8.73478 5.10531 8.48044 5.29285 8.29291C5.48038 8.10537 5.73478 8 6 8H8V6C8 5.73478 8.10531 5.48044 8.29285 5.29291C8.48038 5.10537 8.73478 5 9 5C9.26522 5 9.51962 5.10537 9.70715 5.29291C9.89469 5.48044 10 5.73478 10 6V8H12C12.2652 8 12.5196 8.10537 12.7072 8.29291C12.8947 8.48044 13 8.73478 13 9C13 9.26522 12.8947 9.51956 12.7072 9.70709C12.5196 9.89463 12.2652 10 12 10H10V12C10 12.2652 9.89469 12.5196 9.70715 12.7071C9.51962 12.8946 9.26522 13 9 13C8.73478 13 8.48038 12.8946 8.29285 12.7071C8.10531 12.5196 8 12.2652 8 12Z" fill="currentColor"/>
</svg>
