<?xml version="1.0" standalone="no"?><!DOCTYPE svg PUBLIC "-//W3C//DTD SVG 1.1//EN" "http://www.w3.org/Graphics/SVG/1.1/DTD/svg11.dtd"><svg t="1748913133264" class="icon" viewBox="0 0 1024 1024" version="1.1" xmlns="http://www.w3.org/2000/svg" p-id="5756" xmlns:xlink="http://www.w3.org/1999/xlink" width="16" height="16"><path d="M512.5 54C765.723 54 971 259.277 971 512.5S765.723 971 512.5 971 54 765.723 54 512.5 259.277 54 512.5 54z m0 64C294.624 118 118 294.624 118 512.5S294.624 907 512.5 907 907 730.376 907 512.5 730.376 118 512.5 118z m133.67 151.914a138.602 138.602 0 0 1 70.975 37.937 138.6 138.6 0 0 1 37.94 70.978 138.613 138.613 0 0 1-7.887 80.094 138.645 138.645 0 0 1-51.057 62.216 138.632 138.632 0 0 1-77.016 23.361c-17.673 0-32-14.327-32-32 0-17.673 14.327-32 32-32a74.628 74.628 0 0 0 41.458-12.574 74.642 74.642 0 0 0 27.486-33.493 74.616 74.616 0 0 0 4.246-43.117 74.607 74.607 0 0 0-20.424-38.21 74.619 74.619 0 0 0-114.815 11.313 74.604 74.604 0 0 0-12.572 40.693l-0.004 0.763v213.25c0 27.417-8.13 54.219-23.363 77.02a138.63 138.63 0 0 1-213.282 21.004 138.619 138.619 0 0 1 21.003-213.283 138.605 138.605 0 0 1 77.017-23.366c17.673 0 32 14.327 32 32 0 17.496-14.042 31.713-31.47 31.996l-0.53 0.004a74.608 74.608 0 0 0-41.46 12.578 74.616 74.616 0 0 0-31.73 76.607 74.609 74.609 0 0 0 20.424 38.209 74.606 74.606 0 0 0 38.21 20.422 74.627 74.627 0 0 0 76.604-31.73 74.632 74.632 0 0 0 12.573-40.698l0.004-0.763v-213.25c0-27.42 8.13-54.222 23.363-77.014a138.616 138.616 0 0 1 142.307-58.947z" p-id="5757" fill="#e6e6e6"></path></svg>