<svg width="22" height="22" viewBox="0 0 22 22" fill="none" xmlns="http://www.w3.org/2000/svg">
<path d="M16.5177 10.7846C16.258 10.7846 16.0576 10.9999 16.0576 11.2615C16.0576 12.0384 15.9092 12.7923 15.6199 13.5077C15.0559 14.8923 13.9949 15.9923 12.6592 16.5769C11.9766 16.8769 11.242 17.0308 10.4926 17.0308C9.74315 17.0308 9.01598 16.8769 8.32591 16.5769C6.9903 15.9923 5.92922 14.8923 5.3653 13.5077C5.07591 12.8 4.92751 12.0384 4.92751 11.2615C4.92751 10.4846 5.07591 9.7307 5.3653 9.01531C5.92922 7.63068 6.9903 6.53068 8.32591 5.94606C9.00856 5.64605 9.74315 5.49221 10.4926 5.49221C10.782 5.49221 11.0639 5.51528 11.3533 5.56144L10.5371 5.89221C10.2997 5.99221 10.1809 6.26914 10.27 6.51529C10.359 6.76145 10.6336 6.88453 10.871 6.79222L12.8596 5.99221C13.097 5.89221 13.2158 5.61528 13.1267 5.36913L12.3402 3.30757C12.2437 3.06142 11.9766 2.93834 11.7392 3.03065C11.5017 3.13065 11.383 3.40757 11.472 3.65373L11.8579 4.68451C11.4053 4.58451 10.9452 4.53066 10.4852 4.53066C9.60959 4.53066 8.75628 4.70758 7.95491 5.06143C6.39669 5.74605 5.15753 7.03068 4.49715 8.64608C4.17066 9.47685 4 10.3538 4 11.2615C4 12.1692 4.17066 13.0538 4.51199 13.8846C5.17237 15.5 6.41153 16.7846 7.96975 17.4692C8.77112 17.8231 9.62443 18 10.5 18C11.3756 18 12.2289 17.8231 13.0303 17.4692C14.5885 16.7846 15.8276 15.5 16.488 13.8846C16.8293 13.0538 17 12.1692 17 11.2615C16.9852 10.9999 16.7774 10.7846 16.5177 10.7846C16.5251 10.7846 16.5251 10.7846 16.5177 10.7846Z" fill="currentColor"/>
<path d="M16.5177 10.7846C16.258 10.7846 16.0576 10.9999 16.0576 11.2615C16.0576 12.0384 15.9092 12.7923 15.6199 13.5077C15.0559 14.8923 13.9949 15.9923 12.6592 16.5769C11.9766 16.8769 11.242 17.0308 10.4926 17.0308C9.74315 17.0308 9.01598 16.8769 8.32591 16.5769C6.9903 15.9923 5.92922 14.8923 5.3653 13.5077C5.07591 12.8 4.92751 12.0384 4.92751 11.2615C4.92751 10.4846 5.07591 9.7307 5.3653 9.01531C5.92922 7.63069 6.9903 6.53068 8.32591 5.94606C9.00856 5.64605 9.74315 5.49221 10.4926 5.49221C10.782 5.49221 11.0639 5.51528 11.3533 5.56144L10.5371 5.89221C10.2997 5.99221 10.1809 6.26914 10.27 6.51529C10.359 6.76145 10.6336 6.88453 10.871 6.79222L12.8596 5.99221C13.097 5.89221 13.2158 5.61528 13.1267 5.36913L12.3402 3.30757C12.2437 3.06142 11.9766 2.93834 11.7392 3.03065C11.5017 3.13065 11.383 3.40757 11.472 3.65373L11.8579 4.68451C11.4053 4.58451 10.9452 4.53066 10.4852 4.53066C9.60959 4.53066 8.75628 4.70758 7.95491 5.06143C6.39669 5.74605 5.15753 7.03068 4.49715 8.64608C4.17066 9.47685 4 10.3538 4 11.2615C4 12.1692 4.17066 13.0538 4.51199 13.8846C5.17237 15.5 6.41153 16.7846 7.96975 17.4692C8.77112 17.8231 9.62443 18 10.5 18C11.3756 18 12.2289 17.8231 13.0303 17.4692C14.5885 16.7846 15.8276 15.5 16.488 13.8846C16.8293 13.0538 17 12.1692 17 11.2615C16.9852 10.9999 16.7774 10.7846 16.5177 10.7846ZM16.5177 10.7846C16.5251 10.7846 16.5251 10.7846 16.5177 10.7846Z" stroke="currentColor" stroke-width="0.3"/>
</svg>
