<svg width="22" height="22" viewBox="0 0 22 22" fill="none" xmlns="http://www.w3.org/2000/svg">
<path d="M19.6493 2.3668C19.1907 1.89619 18.5121 1.72087 17.8794 1.90542L3.12416 6.19621C2.45655 6.38168 1.98336 6.91411 1.85589 7.59049C1.72567 8.27886 2.18052 9.1527 2.77477 9.51811L7.38841 12.3537C7.8616 12.6444 8.47235 12.5715 8.86393 12.1766L14.147 6.86059C14.4129 6.58376 14.8531 6.58376 15.1191 6.86059C15.385 7.12819 15.385 7.56188 15.1191 7.8387L9.82682 13.1556C9.43433 13.5496 9.36096 14.1632 9.64983 14.6394L12.4688 19.2993C12.799 19.8529 13.3675 20.1666 13.9911 20.1666C14.0645 20.1666 14.147 20.1666 14.2204 20.1574C14.9357 20.0651 15.5042 19.5761 15.7151 18.884L20.0894 4.1477C20.282 3.52023 20.1078 2.8374 19.6493 2.3668Z" fill="#2A2A2A"/>
</svg>
