<svg width="60" height="22" viewBox="0 0 60 22" fill="none" xmlns="http://www.w3.org/2000/svg">
<path d="M54 1.41666H6C2.96243 1.41666 0.5 3.46868 0.5 5.99999V16C0.5 18.5313 2.96243 20.5833 6 20.5833H54C57.0376 20.5833 59.5 18.5313 59.5 16V5.99999C59.5 3.46868 57.0376 1.41666 54 1.41666Z" stroke="#CFCFCF"/>
<path d="M28.165 14.15C27.695 14.15 27.2367 14.085 26.79 13.955C26.3433 13.8217 25.9667 13.6317 25.66 13.385L26.13 12.65C26.3033 12.7933 26.5 12.915 26.72 13.015C26.94 13.115 27.1733 13.1917 27.42 13.245C27.6667 13.2983 27.9167 13.325 28.17 13.325C28.6667 13.325 29.065 13.2283 29.365 13.035C29.6683 12.8417 29.82 12.5583 29.82 12.185C29.82 11.9117 29.7183 11.68 29.515 11.49C29.315 11.3 28.94 11.1267 28.39 10.97L27.63 10.745C26.99 10.5583 26.5217 10.3133 26.225 10.01C25.9283 9.70667 25.78 9.32667 25.78 8.87C25.78 8.56333 25.8417 8.28667 25.965 8.04C26.0883 7.79333 26.2617 7.58167 26.485 7.405C26.7083 7.225 26.9717 7.08833 27.275 6.995C27.5817 6.89833 27.9167 6.85 28.28 6.85C28.73 6.85 29.1483 6.91667 29.535 7.05C29.925 7.18 30.2467 7.355 30.5 7.575L30.015 8.28C29.865 8.15333 29.6933 8.045 29.5 7.955C29.3067 7.86167 29.1 7.79167 28.88 7.745C28.66 7.695 28.4367 7.67 28.21 7.67C27.9067 7.67 27.6383 7.715 27.405 7.805C27.175 7.89167 26.995 8.02167 26.865 8.195C26.7383 8.365 26.675 8.57167 26.675 8.815C26.675 8.99167 26.7167 9.14667 26.8 9.28C26.8833 9.41 27.0283 9.53 27.235 9.64C27.4417 9.75 27.7267 9.85833 28.09 9.965L28.9 10.205C29.5233 10.3883 29.9817 10.63 30.275 10.93C30.5683 11.2267 30.715 11.6167 30.715 12.1C30.715 12.5067 30.615 12.865 30.415 13.175C30.2183 13.4817 29.93 13.7217 29.55 13.895C29.17 14.065 28.7083 14.15 28.165 14.15ZM31.9252 14V6.8H32.8452V10.065L32.6552 9.87C32.8752 9.55333 33.1402 9.32167 33.4502 9.175C33.7636 9.025 34.0886 8.95 34.4252 8.95C34.8686 8.95 35.2369 9.04 35.5302 9.22C35.8269 9.39667 36.0486 9.625 36.1952 9.905C36.3419 10.185 36.4152 10.4733 36.4152 10.77V14H35.4952V11.035C35.4952 10.6717 35.3786 10.3767 35.1452 10.15C34.9119 9.92 34.5986 9.805 34.2052 9.805C33.9452 9.805 33.7119 9.86333 33.5052 9.98C33.3019 10.0933 33.1402 10.255 33.0202 10.465C32.9036 10.6717 32.8452 10.915 32.8452 11.195V14H31.9252ZM39.1956 14.15C38.849 14.15 38.5473 14.0867 38.2906 13.96C38.034 13.8333 37.8356 13.655 37.6956 13.425C37.5556 13.1917 37.4856 12.9167 37.4856 12.6C37.4856 12.34 37.5523 12.1033 37.6856 11.89C37.819 11.6733 38.029 11.495 38.3156 11.355C38.6023 11.2117 38.974 11.1167 39.4306 11.07C39.8873 11.02 40.439 11.0283 41.0856 11.095L41.1106 11.77C40.6106 11.7033 40.1856 11.6783 39.8356 11.695C39.4856 11.7083 39.2023 11.755 38.9856 11.835C38.769 11.9117 38.609 12.015 38.5056 12.145C38.4056 12.2717 38.3556 12.415 38.3556 12.575C38.3556 12.8317 38.4473 13.0333 38.6306 13.18C38.8173 13.3233 39.0723 13.395 39.3956 13.395C39.6723 13.395 39.919 13.345 40.1356 13.245C40.3556 13.1417 40.529 13 40.6556 12.82C40.7856 12.6367 40.8506 12.425 40.8506 12.185V10.815C40.8506 10.585 40.799 10.385 40.6956 10.215C40.5956 10.045 40.4473 9.91333 40.2506 9.82C40.054 9.72667 39.8123 9.68 39.5256 9.68C39.269 9.68 39.014 9.71833 38.7606 9.795C38.5073 9.87167 38.264 9.99667 38.0306 10.17L37.7506 9.46C38.054 9.25333 38.3673 9.10833 38.6906 9.025C39.014 8.94167 39.324 8.9 39.6206 8.9C40.0706 8.9 40.454 8.97167 40.7706 9.115C41.0873 9.255 41.329 9.46667 41.4956 9.75C41.6623 10.0333 41.7456 10.3867 41.7456 10.81V14H40.9006V13.4C40.7306 13.6433 40.4956 13.83 40.1956 13.96C39.8956 14.0867 39.5623 14.15 39.1956 14.15ZM43.1603 14V9.1H44.0803V9.81C44.277 9.49 44.5103 9.26667 44.7803 9.14C45.0536 9.01 45.3436 8.945 45.6503 8.945C45.747 8.945 45.8403 8.95 45.9303 8.96C46.0203 8.97 46.1086 8.98333 46.1953 9L46.0603 9.955C45.967 9.92833 45.872 9.90833 45.7753 9.895C45.6786 9.87833 45.5836 9.87 45.4903 9.87C45.0803 9.87 44.742 9.99833 44.4753 10.255C44.212 10.5083 44.0803 10.8483 44.0803 11.275V14H43.1603ZM49.1616 14.15C48.6416 14.15 48.1832 14.0417 47.7866 13.825C47.3899 13.6083 47.0799 13.3067 46.8566 12.92C46.6332 12.53 46.5216 12.0767 46.5216 11.56C46.5216 11.1867 46.5849 10.84 46.7116 10.52C46.8416 10.2 47.0216 9.92333 47.2516 9.69C47.4849 9.45667 47.7566 9.275 48.0666 9.145C48.3799 9.015 48.7199 8.95 49.0866 8.95C49.4832 8.95 49.8366 9.02 50.1466 9.16C50.4599 9.3 50.7182 9.49667 50.9216 9.75C51.1282 10 51.2766 10.295 51.3666 10.635C51.4566 10.9717 51.4749 11.3383 51.4216 11.735H47.4316C47.4216 12.0617 47.4882 12.3483 47.6316 12.595C47.7749 12.8383 47.9816 13.0283 48.2516 13.165C48.5249 13.3017 48.8482 13.37 49.2216 13.37C49.4949 13.37 49.7616 13.3267 50.0216 13.24C50.2816 13.1533 50.5116 13.025 50.7116 12.855L51.1016 13.54C50.9416 13.67 50.7516 13.7817 50.5316 13.875C50.3149 13.965 50.0882 14.0333 49.8516 14.08C49.6149 14.1267 49.3849 14.15 49.1616 14.15ZM47.4816 11.02H50.5016C50.4882 10.6067 50.3599 10.285 50.1166 10.055C49.8732 9.82167 49.5249 9.705 49.0716 9.705C48.6316 9.705 48.2682 9.82167 47.9816 10.055C47.6949 10.285 47.5282 10.6067 47.4816 11.02Z" fill="currentColor"/>
<path d="M12.25 10.616L11.75 9.75L15.25 7.75L15.75 8.61603L12.25 10.616Z" fill="currentColor"/>
<path d="M12.25 11.2501L11.7222 12.1441L15.25 13.75L15.7778 12.856L12.25 11.2501Z" fill="currentColor"/>
<path d="M10.75 11.75C11.3023 11.75 11.75 11.3023 11.75 10.75C11.75 10.1977 11.3023 9.75 10.75 9.75C10.1977 9.75 9.75 10.1977 9.75 10.75C9.75 11.3023 10.1977 11.75 10.75 11.75Z" fill="white"/>
<path d="M10.75 12.5C11.7165 12.5 12.5 11.7165 12.5 10.75C12.5 9.7835 11.7165 9 10.75 9C9.7835 9 9 9.7835 9 10.75C9 11.7165 9.7835 12.5 10.75 12.5Z" stroke="currentColor" stroke-width="1.2"/>
<path d="M16.75 9.5C17.7165 9.5 18.5 8.7165 18.5 7.75C18.5 6.7835 17.7165 6 16.75 6C15.7835 6 15 6.7835 15 7.75C15 8.7165 15.7835 9.5 16.75 9.5Z" stroke="currentColor" stroke-width="1.2"/>
<path d="M16.75 15.5C17.7165 15.5 18.5 14.7165 18.5 13.75C18.5 12.7835 17.7165 12 16.75 12C15.7835 12 15 12.7835 15 13.75C15 14.7165 15.7835 15.5 16.75 15.5Z" stroke="currentColor" stroke-width="1.2"/>
</svg>
