<svg width="15" height="15" viewBox="0 0 15 15" fill="none" xmlns="http://www.w3.org/2000/svg">
<path d="M6.25 7.61603L5.75 6.75L9.25 4.75L9.75 5.61603L6.25 7.61603Z" fill="currentColor"/>
<path d="M6.25 8.25006L5.72217 9.14407L9.25 10.75L9.77783 9.85602L6.25 8.25006Z" fill="currentColor"/>
<path d="M4.75 8.75C5.30228 8.75 5.75 8.30228 5.75 7.75C5.75 7.19772 5.30228 6.75 4.75 6.75C4.19772 6.75 3.75 7.19772 3.75 7.75C3.75 8.30228 4.19772 8.75 4.75 8.75Z" fill="white"/>
<path d="M4.75 9.5C5.7165 9.5 6.5 8.7165 6.5 7.75C6.5 6.7835 5.7165 6 4.75 6C3.7835 6 3 6.7835 3 7.75C3 8.7165 3.7835 9.5 4.75 9.5Z" stroke="currentColor" stroke-width="1.2"/>
<path d="M10.75 6.5C11.7165 6.5 12.5 5.7165 12.5 4.75C12.5 3.7835 11.7165 3 10.75 3C9.7835 3 9 3.7835 9 4.75C9 5.7165 9.7835 6.5 10.75 6.5Z" stroke="currentColor" stroke-width="1.2"/>
<path d="M10.75 12.5C11.7165 12.5 12.5 11.7165 12.5 10.75C12.5 9.7835 11.7165 9 10.75 9C9.7835 9 9 9.7835 9 10.75C9 11.7165 9.7835 12.5 10.75 12.5Z" stroke="currentColor" stroke-width="1.2"/>
</svg>
