<svg width="36" height="30" viewBox="0 0 36 30" fill="none" xmlns="http://www.w3.org/2000/svg">
<path d="M27 30V1.03448H28V30H27ZM26 30V7.24138H24V8.27586H22V9.31035H21V10.3448H20V11.3793H18V12.4138H16V13.4483H14V14.4828H13V15.5172H11V16.5517H10V17.5862H8V16.5517H6V15.5172H3V14.4828H0V13.4483H1V12.4138H3V11.3793H6V10.3448H8V9.31035H10V8.27586H13V7.24138H16V6.2069H18V5.17241H20V4.13793H22V3.10345H24V2.06897H27V30H26ZM28 28.9655V1.03448H29V28.9655H28ZM25 28.9655V8.27586H26V28.9655H25ZM29 27.931V1.03448H30V27.931H29ZM24 27.931V9.31035H25V27.931H24ZM13 27.931V19.6552H14V27.931H13ZM23 26.8966V10.3448H24V26.8966H23ZM14 26.8966V18.6207H15V26.8966H14ZM22 25.8621V11.3793H23V25.8621H22ZM15 25.8621V17.5862H16V25.8621H15ZM30 24.8276V1.03448H31V24.8276H30ZM21 24.8276V12.4138H22V24.8276H21ZM16 24.8276V16.5517H17V24.8276H16ZM20 23.7931V13.4483H21V23.7931H20ZM17 23.7931V15.5172H18V23.7931H17ZM19 22.7586V13.4483H20V22.7586H19ZM18 22.7586V14.4828H19V22.7586H18ZM31 20.6897V0H32V20.6897H31ZM32 17.5862V0H33V17.5862H32ZM33 14.4828V0H34V14.4828H33ZM34 10.3448V0H35V10.3448H34ZM35 5.17241V0H36V5.17241H35Z" fill="black"/>
</svg>
