<svg width="22" height="22" viewBox="0 0 22 22" fill="none" xmlns="http://www.w3.org/2000/svg">
<g clip-path="url(#clip0_199_812)">
<g clip-path="url(#clip1_199_812)">
<path d="M3.0091 9.39603C3.91923 5.07219 8.22412 2.27598 12.6382 3.16041C15.8328 3.80362 18.3356 6.26035 18.9909 9.39603C19.0546 9.69977 18.8544 9.99458 18.5449 10.0571C18.2355 10.1196 17.9352 9.92311 17.8714 9.61937C17.0887 5.89407 13.3845 3.49095 9.58931 4.2503C7.20478 4.73271 5.23891 6.39435 4.4016 8.64561L5.65757 8.23467C5.95791 8.1364 6.27645 8.2972 6.37657 8.59201C6.47668 8.88682 6.31286 9.19949 6.02162 9.29776L3.74631 10.0392C3.44596 10.1375 3.12742 9.97671 3.02731 9.6819C3 9.59257 2.9909 9.4943 3.0091 9.39603ZM11.1547 7.46638C11.3823 7.46638 11.5825 7.60038 11.6735 7.80585L14.3311 13.7645C14.4676 14.0415 14.3402 14.372 14.058 14.506C13.7759 14.64 13.4391 14.515 13.3026 14.238C13.2935 14.2291 13.2935 14.2201 13.2844 14.2023L12.6018 12.6746H9.69852L9.01593 14.2023C8.88851 14.4792 8.55177 14.6043 8.26053 14.4792C7.97839 14.3542 7.85097 14.0325 7.96929 13.7556L10.6269 7.79692C10.7179 7.59145 10.9272 7.46638 11.1547 7.46638ZM12.1104 11.5579L11.1547 9.4139L10.1991 11.5579H12.1104ZM4.12856 12.3798C4.05575 12.0761 3.75541 11.8885 3.44596 11.96C3.14562 12.0225 2.9545 12.3084 3.0091 12.6032C3.91013 16.9359 8.22412 19.7322 12.6382 18.8388C15.8419 18.1956 18.3356 15.7389 18.9909 12.6032C19.0546 12.2994 18.8544 12.0046 18.5449 11.9421C18.4357 11.9242 18.3265 11.9332 18.2264 11.9689L16.2514 12.7104C15.9602 12.8265 15.8237 13.1571 15.942 13.4429C16.0603 13.7199 16.3697 13.8539 16.661 13.7556L17.5711 13.4161C16.215 16.9806 12.165 18.7852 8.53356 17.4541C6.27645 16.6143 4.61092 14.7026 4.12856 12.3798Z" fill="currentColor"/>
</g>
</g>
<defs>
<clipPath id="clip0_199_812">
<rect width="16" height="16" fill="white" transform="translate(3 3)"/>
</clipPath>
<clipPath id="clip1_199_812">
<rect width="16" height="16" fill="white" transform="translate(3 3)"/>
</clipPath>
</defs>
</svg>
