<svg width="18" height="20" viewBox="0 0 18 20" fill="none" xmlns="http://www.w3.org/2000/svg">
<path fill-rule="evenodd" clip-rule="evenodd" d="M6.99963 0.150818H10.9997V2.15072H6.99963V3.15091H5.99963V1.15071H6.99963V0.150818ZM5.99958 1.15071H4.99988V5.15081H5.99958V1.15071ZM3.99976 3.15091H4.99986V5.15081H3.99976V3.15091ZM4.99986 5.15082H3.99986H3.99976H2.99976V7.15072H3.99976V9.15092H4.99986V5.15082ZM5.99958 7.15071H4.99988V10.1506H5.99958V7.15071ZM5.99963 9.15091H6.99963V10.1506H7.99973V12.1509H6.99963V13.1507H5.99963V9.15091ZM7.99976 10.1506H8.99976H8.99986H9.99946V12.1509H8.99986H8.99976H7.99976V10.1506ZM9.99951 10.1506H10.9997V12.1509H9.99951V10.1506ZM5.99958 11.1508H4.99988V13.1507H5.99958V11.1508ZM3.99976 12.1509H4.99986V14.1508H3.99986V15.1509H2.99976V13.1507H3.99976V12.1509ZM1.99951 14.1508H2.99971V16.1507H1.99951V14.1508ZM1.99946 15.1509H0.999756V16.1507H-0.000244141V19.1507H0.999856V18.1509H1.99946V15.1509ZM11.9998 13.1507H10.9998V9.15091H11.9998V7.15071H12.9999V10.1506H11.9999V11.1508H12.9999V13.1507H11.9998V13.1507ZM12.9999 12.1509H13.9996V14.1508H12.9999V12.1509ZM14.9998 13.1507H13.9996V15.1509H14.9998V16.1507H15.9997V14.1508H14.9998V13.1507ZM16.9999 15.1509H15.9998V17.1508V18.1509V19.1507H16.9999L17.9995 19.1507V18.1509V17.1508V16.1507H16.9999V15.1509ZM11.9998 1.15071H10.9998V3.15091H11.9998V5.15081H12.9999V1.15071H11.9999H11.9998ZM13.9996 3.15091H12.9999V5.15081H13.9996V3.15091ZM12.9999 5.15082H13.9996V9.15092H12.9999V5.15082ZM14.9998 5.15082H13.9996V7.15072H14.9998V5.15082Z" fill="#666666"/>
</svg>
