<svg width="10" height="15" viewBox="0 0 10 15" fill="none" xmlns="http://www.w3.org/2000/svg">
<path d="M2.97414 15C2.83713 15 2.70567 14.9342 2.60879 14.817C2.51191 14.6999 2.45755 14.541 2.45755 14.3753C2.45755 14.2096 2.51191 14.0507 2.60879 13.9335C2.70567 13.8164 2.83713 13.7506 2.97414 13.7506H4.47387V12.4704C3.37766 12.3962 2.3357 11.8693 1.52215 10.9777C0.708601 10.0861 0.172701 8.88383 0.00410192 7.57184C-0.0129492 7.40963 0.0235885 7.24584 0.105699 7.11592C0.18781 6.986 0.30891 6.90045 0.442821 6.87776C0.509085 6.86955 0.576022 6.87726 0.639809 6.90046C0.703597 6.92366 0.762956 6.96191 0.814476 7.01297C0.865996 7.06403 0.908652 7.12685 0.939996 7.19793C0.971341 7.26901 0.990794 7.34688 0.997151 7.42707C1.21187 8.5154 1.72365 9.48446 2.44984 10.1778C3.17603 10.8711 4.07425 11.2482 4.99948 11.2482C5.92471 11.2482 6.82292 10.8711 7.54911 10.1778C8.27531 9.48446 8.78708 8.5154 9.0018 7.42707C9.00875 7.31705 9.03972 7.21124 9.09159 7.12046C9.14345 7.02969 9.21434 6.95721 9.29698 6.91045C9.37859 6.86519 9.469 6.84811 9.55813 6.86106C9.64727 6.87401 9.73164 6.91652 9.80207 6.98386C9.87364 7.05298 9.92912 7.14346 9.96292 7.24641C9.99671 7.34936 10.0076 7.46121 9.99475 7.57087C9.82384 8.89277 9.28073 10.1028 8.45718 10.9962C7.63363 11.8897 6.58021 12.4118 5.47503 12.4744V13.7496H6.97476C7.06341 13.7502 7.15038 13.7795 7.2265 13.8344C7.30263 13.8894 7.36521 13.9679 7.40778 14.062C7.45172 14.1575 7.47474 14.265 7.47474 14.3743C7.47474 14.4836 7.45172 14.5911 7.40778 14.6867C7.36521 14.7807 7.30263 14.8593 7.2265 14.9142C7.15038 14.9691 7.06341 14.9984 6.97476 14.999L2.97414 15ZM1.99911 6.25008V3.74921C1.98581 3.26278 2.05355 2.77809 2.1983 2.32396C2.34305 1.86983 2.56187 1.45555 2.84171 1.10575C3.12156 0.755962 3.45671 0.47781 3.82726 0.287847C4.1978 0.0978841 4.59621 0 4.99868 0C5.40114 0 5.79945 0.0978841 6.16999 0.287847C6.54054 0.47781 6.87569 0.755962 7.15554 1.10575C7.43538 1.45555 7.6542 1.86983 7.79895 2.32396C7.9437 2.77809 8.01145 3.26278 7.99814 3.74921V6.25008C8.01145 6.73652 7.9437 7.2212 7.79895 7.67533C7.6542 8.12947 7.43538 8.54375 7.15554 8.89354C6.87569 9.24333 6.54054 9.52148 6.16999 9.71145C5.79945 9.90141 5.40114 9.99929 4.99868 9.99929C4.59621 9.99929 4.1978 9.90141 3.82726 9.71145C3.45671 9.52148 3.12156 9.24333 2.84171 8.89354C2.56187 8.54375 2.34305 8.12947 2.1983 7.67533C2.05355 7.2212 1.98581 6.73652 1.99911 6.25008Z" fill="currentColor"/>
</svg>
