<svg width="27" height="31" viewBox="0 0 27 31" fill="none" xmlns="http://www.w3.org/2000/svg">
<path d="M1 31V29.99H4.67993V31H1ZM1.6499 29.99V28.91H5.29907V29.99H1.6499ZM2.33008 28.91V27.86H3.25V26.82H6.92993V27.87H6.00903V28.91H2.33008ZM4.07007 26.819V25.809H7.75V26.819H4.07007ZM4.37012 25.809V24.8H8.05005V25.81L4.37012 25.809ZM5.09009 24.799V23.749H8.77002V24.799H5.09009ZM6.01001 23.749V22.739H6.83105V21.7H10.51V22.75H9.68994V23.75L6.01001 23.749ZM7.6499 21.699V20.689H11.3301V21.699H7.6499ZM8.36108 20.689V19.609H12.011V20.689H8.36108ZM9.28101 19.609V18.56H12.9299V19.609H9.28101ZM10.071 18.56V17.55H13.791V18.561L10.071 18.56ZM10.3711 17.549V16.5H14.051V17.549H10.3711ZM11.1211 16.5V15.49H12.011V14.45H15.731V15.5H14.772V16.5H11.1211ZM12.8311 14.45V13.44H16.511V14.45H12.8311ZM13.271 13.44V12.39H16.9209V13.44H13.271ZM13.991 12.39V11.31H17.6399V12.39H13.991ZM14.8711 11.31V10.3H15.731V9.25999H19.3811V10.31H18.551V11.31H14.8711ZM16.1011 9.25999V8.25H19.78V9.25999H16.1011ZM16.821 8.25V7.2H20.5V8.25H16.821ZM17.741 7.2V6.19H21.4209V7.2H17.741ZM18.561 6.19V5.17999H18.8611V4.14H22.541V5.19H22.2109V6.19H18.561ZM19.5811 4.14V3.09H23.261V4.13901L19.5811 4.14ZM20.501 3.091V2.011H24.1509V3.091H20.501ZM21.322 2.011V1H25V2.011H21.322Z" fill="#090103"/>
<path d="M25.4805 29.4298H24.4805H21.1199H20.1199V28.5496H19.55V27.6397H18.9102V26.7703H18.0596V25.8496H17.3101V24.9703H17.04V24.1H16.3804V23.1802H15.5298V22.3099H14.7998V21.4H14.0403V20.5198H13.3994V19.6099H12.5498V18.7297H11.7903V17.8504H11.5303V16.9396H10.8704V16.0603H10.01V15.1504H9.28027V14.2702H8.89941V13.39H8.23975V12.4801H7.40991V11.5999H6.64941V10.69H6.26978V9.81973H5.62988V8.89993H4.78027V8.01973H4.05029V7.15033H3.75952V6.24043H3.09985V5.36023H2.27002V4.45033H1.50952V3.45033V2.57013V1.57013H2.50952H5.87012H6.87012V2.45033H7.62988V3.36023H8.46045V4.24043H9.12012V5.14043H9.40991V6.01973H10.1399V6.90984H10.9905V7.80983H11.6599V8.69003H12.01V9.59993H12.7698V10.4801H13.6003V11.39H14.26V12.2702H14.6399V13.1504H15.3994V14.0603H16.2302V14.9396H16.8899V15.8504H17.1797V16.7297H17.9104V17.6099H18.76V18.5198H19.3999V19.4H20.1604V20.3H20.9202V21.1901H21.74V22.0901H22.4006V22.9703H22.7002V23.8604H23.4202V24.7604H24.2698V25.6397H24.9097V26.5496H25.4805V27.5496V28.4298V29.4298Z" fill="white"/>
<path d="M24.4805 28.4298V27.5496H21.1199V28.4298H24.4805ZM23.9097 27.5496V26.6397H20.55V27.5496H23.9097ZM23.2698 26.6397V25.7604H22.4202V24.8604H19.0596V25.7703H19.9102V26.6397H23.2698ZM21.7002 24.8496V23.9703H18.3101V24.8496H21.7002ZM21.4006 23.9703V23.0901H20.74V22.1901H17.3804V23.1H18.04V23.9703H21.4006ZM19.9202 22.1802V21.3H19.1604V20.4H15.7998V21.3099H16.5298V22.1802H19.9202ZM18.3999 20.4V19.5198H15.0403V20.4H18.3999ZM17.76 19.5198V18.6099H14.3994V19.5198H17.76ZM16.9104 18.6099V17.7297H13.5498V18.6099H16.9104ZM16.1797 17.7297V16.8504H12.7903V17.7297H16.1797ZM15.8899 16.8504V15.9396H12.5303V16.8504H15.8899ZM15.2302 15.9396V15.0603H11.8704V15.9396H15.2302ZM14.3994 15.0603V14.1504H11.01V15.0603H14.3994ZM13.6399 14.1504V13.2702H10.2803V14.1504H13.6399ZM13.26 13.2702V12.39H9.89941V13.2702H13.26ZM12.6003 12.39V11.4801H9.23975V12.39H12.6003ZM11.7698 11.4801V10.5999H8.40991V11.4801H11.7698ZM11.01 10.5999V9.69002H7.64941V10.5999H11.01ZM10.6599 9.69002V8.80981H9.99048V7.90981H6.62988V8.8197H7.26978V9.69002H10.6599ZM9.13989 7.89992V7.0197H5.78027V7.89992H9.13989ZM8.40991 7.0197V6.1404H8.12012V5.24045H4.75952V6.15034H5.05029V7.0197H8.40991ZM7.46045 5.24045V4.36023H4.09985V5.24045H7.46045ZM6.62988 4.36023V3.45033H3.27002V4.36023H6.62988ZM5.87012 3.45033V2.57013H2.50952V3.45033H5.87012ZM26.4805 30.4298H19.1199V29.5496H18.55V28.6397H17.9102V27.7703H17.0596V26.8496H16.3101V25.9703H16.04V25.1H15.3804V24.1802H14.5298V23.3099H13.7998V22.4H13.0403V21.5198H12.3994V20.6099H11.5498V19.7297H10.7903V18.8504H10.5303V17.9396H9.87036V17.0603H9.01001V16.1504H8.28027V15.2702H7.89941V14.39H7.23975V13.4801H6.40991V12.5999H5.64941V11.69H5.26978V10.8197H4.62988V9.89992H3.78027V9.0197H3.05029V8.15034H2.75952V7.24045H2.09985V6.36023H1.27002V5.45033H0.509521V0.570129H7.87012V1.45033H8.62988V2.36023H9.46045V3.24045H10.1201V4.1404H10.4099V5.0197H11.1399V5.90981H11.9905V6.80981H12.6599V7.69002H13.01V8.59991H13.7698V9.48013H14.6003V10.39H15.26V11.2702H15.6399V12.1504H16.3994V13.0603H17.2302V13.9396H17.8899V14.8504H18.1797V15.7297H18.9104V16.6099H19.76V17.5198H20.3999V18.4H21.1604V19.3H21.9202V20.1901H22.74V21.0901H23.4006V21.9703H23.7002V22.8604H24.4202V23.7604H25.2698V24.6397H25.9097V25.5496H26.4805V30.4298Z" fill="#090103"/>
</svg>
