<svg width="28" height="28" viewBox="0 0 46 46" fill="none" xmlns="http://www.w3.org/2000/svg">
<g filter="url(#filter0_di_473_2128)">
<path d="M14 21.875C14 17.5258 17.5258 14 21.875 14C27.4669 14 32 18.5331 32 24.125C32 28.4742 28.4742 32 24.125 32H23C18.0294 32 14 27.9706 14 23V21.875Z" fill="url(#paint0_radial_473_2128)"/>
</g>
<ellipse cx="17.3878" cy="20.6409" rx="1" ry="1.5" transform="rotate(1.1651 17.3878 20.6409)" fill="#242424"/>
<path d="M19 23C19 23.5 20 24 20.5001 24C21.7001 24 21.8334 23.3333 22.0001 23" stroke="black" stroke-width="0.6" stroke-linecap="round" stroke-linejoin="round"/>
<ellipse cx="23.3646" cy="20.6545" rx="1" ry="1.5" transform="rotate(7.54852 23.3646 20.6545)" fill="#242424"/>
<defs>
<filter id="filter0_di_473_2128" x="0" y="0" width="46" height="46" filterUnits="userSpaceOnUse" color-interpolation-filters="sRGB">
<feFlood flood-opacity="0" result="BackgroundImageFix"/>
<feColorMatrix in="SourceAlpha" type="matrix" values="0 0 0 0 0 0 0 0 0 0 0 0 0 0 0 0 0 0 127 0" result="hardAlpha"/>
<feOffset/>
<feGaussianBlur stdDeviation="7"/>
<feComposite in2="hardAlpha" operator="out"/>
<feColorMatrix type="matrix" values="0 0 0 0 0 0 0 0 0 0 0 0 0 0 0 0 0 0 0.06 0"/>
<feBlend mode="normal" in2="BackgroundImageFix" result="effect1_dropShadow_473_2128"/>
<feBlend mode="normal" in="SourceGraphic" in2="effect1_dropShadow_473_2128" result="shape"/>
<feColorMatrix in="SourceAlpha" type="matrix" values="0 0 0 0 0 0 0 0 0 0 0 0 0 0 0 0 0 0 127 0" result="hardAlpha"/>
<feOffset dx="-2"/>
<feGaussianBlur stdDeviation="2"/>
<feComposite in2="hardAlpha" operator="arithmetic" k2="-1" k3="1"/>
<feColorMatrix type="matrix" values="0 0 0 0 0.968627 0 0 0 0 0.831373 0 0 0 0 0.792157 0 0 0 1 0"/>
<feBlend mode="normal" in2="shape" result="effect2_innerShadow_473_2128"/>
</filter>
<radialGradient id="paint0_radial_473_2128" cx="0" cy="0" r="1" gradientUnits="userSpaceOnUse" gradientTransform="translate(18.5 19.5) rotate(42.5104) scale(16.2788)">
<stop stop-color="#DFF6FD"/>
<stop offset="0.31864" stop-color="#E0EEFD"/>
<stop offset="0.935232" stop-color="#FFB7F4"/>
</radialGradient>
</defs>
</svg>
