<?xml version="1.0" standalone="no"?><!DOCTYPE svg PUBLIC "-//W3C//DTD SVG 1.1//EN" "http://www.w3.org/Graphics/SVG/1.1/DTD/svg11.dtd"><svg t="1734854339544" class="icon" viewBox="0 0 1024 1024" version="1.1" xmlns="http://www.w3.org/2000/svg" p-id="6677" xmlns:xlink="http://www.w3.org/1999/xlink" width="16" height="16"><path d="M532.886439 489.984564l345.472988 270.394708c3.951488 3.38699 6.209482 7.902977 6.209481 13.547961v81.85226c0 7.338479-7.902977 11.289967-13.54796 6.77398L512 581.433297l-359.020948 281.120176c-5.644983 4.515987-13.54796 0.564498-13.54796-6.77398v-81.85226c0-5.080485 2.257993-10.16097 6.209481-13.547961L491.113561 489.984564c12.418964-9.596472 29.353914-9.596472 41.772878 0z m0 0" p-id="6678"></path><path d="M532.886439 168.220507l345.472988 270.394708c3.951488 3.38699 6.209482 7.902977 6.209481 13.54796v81.852261c0 7.338479-7.902977 11.289967-13.54796 6.77398L512 259.104741 152.979052 540.224917c-5.644983 4.515987-13.54796 0.564498-13.54796-6.77398V451.598677c0-5.080485 2.257993-10.16097 6.209481-13.54796L491.113561 168.220507c12.418964-9.596472 29.353914-9.596472 41.772878 0z m0 0" p-id="6679"></path></svg>