<svg width="18" height="18" viewBox="0 0 18 18" fill="none" xmlns="http://www.w3.org/2000/svg">
<path d="M7.95619 14.5612V13.752H8.76723V12.9428H9.5774V9.71189H7.95619V8.09352H4.7171V8.90184H3.90705V9.71189H3.09688V12.9428H3.90705V13.752H4.7171V14.5612H7.95619ZM8.36195 17.3944H4.31232V16.5862H2.6921V15.777H1.88205V14.9678H1.07188V13.3495H0.262695V9.30439H1.07188V7.68689H1.88205V6.87684H2.6921V6.06852H4.31232V5.25934H8.36195V6.06852H9.98119V7.68689H11.6024V9.30439H12.4124V13.3495H11.6024V14.9678H10.7922V15.777H9.98119V16.5862H8.36195V17.3944Z" fill="#2A74FB"/>
<path d="M9.35474 8.3179V6.28277H11.3797V4.25777H13.4149V6.2929H11.3899V8.3179H9.35474ZM15.45 6.28277V4.25777H13.4149L13.4139 2.22263H11.3787V0.1875H17.4842V6.28277H15.45Z" fill="#2A74FB"/>
</svg>
