<svg width="26" height="26" viewBox="0 0 26 26" fill="none" xmlns="http://www.w3.org/2000/svg">
<circle cx="13" cy="13" r="10" fill="#ECECEE"/>
<g clip-path="url(#clip0_52_3607)">
<path d="M16.5355 9.46451C16.6292 9.55827 16.6819 9.68543 16.6819 9.81801C16.6819 9.95059 16.6292 10.0777 16.5355 10.1715L13.707 13L16.5355 15.8285C16.6266 15.9228 16.677 16.0491 16.6758 16.1802C16.6747 16.3113 16.6221 16.4367 16.5294 16.5294C16.4367 16.6221 16.3113 16.6747 16.1802 16.6758C16.0491 16.677 15.9228 16.6266 15.8285 16.5355L13 13.707L10.1715 16.5355C10.0768 16.6243 9.95121 16.6728 9.82136 16.6707C9.69152 16.6686 9.56759 16.6161 9.4758 16.5242C9.38401 16.4324 9.33156 16.3084 9.32954 16.1785C9.32753 16.0487 9.3761 15.9232 9.465 15.8285L12.293 13L9.4645 10.1715C9.37567 10.0768 9.32718 9.95121 9.32929 9.82137C9.3314 9.69153 9.38394 9.5676 9.4758 9.47581C9.56765 9.38402 9.69162 9.33157 9.82146 9.32955C9.9513 9.32754 10.0768 9.37611 10.1715 9.46501L13 12.293L15.8285 9.46451C15.9223 9.37077 16.0494 9.31812 16.182 9.31812C16.3146 9.31812 16.4417 9.37077 16.5355 9.46451Z" fill="#868692"/>
</g>
<defs>
<clipPath id="clip0_52_3607">
<rect width="8" height="8" fill="white" transform="translate(9 9)"/>
</clipPath>
</defs>
</svg>
