<svg width="18" height="15" viewBox="0 0 18 15" fill="none" xmlns="http://www.w3.org/2000/svg">
<path d="M14 1H2C1.44772 1 1 1.44772 1 2V10C1 10.5523 1.44772 11 2 11H14C14.5523 11 15 10.5523 15 10V2C15 1.44772 14.5523 1 14 1Z" stroke="currentColor" stroke-width="1.2"/>
<path d="M16 3H10C8.89543 3 8 3.89543 8 5V13C8 14.1046 8.89543 15 10 15H16C17.1046 15 18 14.1046 18 13V5C18 3.89543 17.1046 3 16 3Z" fill="transparent"/>
<path d="M16 4H10C9.44772 4 9 4.44772 9 5V13C9 13.5523 9.44772 14 10 14H16C16.5523 14 17 13.5523 17 13V5C17 4.44772 16.5523 4 16 4Z" stroke="currentColor" stroke-width="1.2"/>
</svg>
