<svg width="21" height="21" viewBox="0 0 21 21" fill="none" xmlns="http://www.w3.org/2000/svg">
<path fill-rule="evenodd" clip-rule="evenodd" d="M9.21145 9.21201L8.16445 12.559L11.5105 11.511L12.5585 8.16401L9.21145 9.21201ZM7.02045 14.452C6.82445 14.452 6.63245 14.375 6.48945 14.233C6.29245 14.035 6.22045 13.744 6.30445 13.479L7.89745 8.39001C7.97045 8.15401 8.15445 7.97101 8.38845 7.89801L13.4775 6.30501C13.7445 6.22001 14.0345 6.29301 14.2325 6.49001C14.4295 6.68801 14.5015 6.97901 14.4175 7.24401L12.8255 12.333C12.7525 12.568 12.5675 12.752 12.3335 12.825L7.24445 14.418C7.17045 14.441 7.09445 14.452 7.02045 14.452Z" fill="currentColor"/>
<mask id="mask0_165_320" style="mask-type:luminance" maskUnits="userSpaceOnUse" x="0" y="0" width="21" height="21">
<path fill-rule="evenodd" clip-rule="evenodd" d="M0 0H20.7218V20.7217H0V0Z" fill="white"/>
</mask>
<g mask="url(#mask0_165_320)">
<path fill-rule="evenodd" clip-rule="evenodd" d="M10.3608 1.5C5.47476 1.5 1.49976 5.476 1.49976 10.361C1.49976 15.247 5.47476 19.222 10.3608 19.222C15.2468 19.222 19.2218 15.247 19.2218 10.361C19.2218 5.476 15.2468 1.5 10.3608 1.5ZM10.3608 20.722C4.64776 20.722 -0.000244141 16.074 -0.000244141 10.361C-0.000244141 4.648 4.64776 0 10.3608 0C16.0738 0 20.7218 4.648 20.7218 10.361C20.7218 16.074 16.0738 20.722 10.3608 20.722Z" fill="currentColor"/>
</g>
</svg>
