<svg width="13" height="17" viewBox="0 0 13 17" fill="none" xmlns="http://www.w3.org/2000/svg">
<path d="M0 16.8532V0.793457H8.86304L13 5.38052V16.8532H0ZM8.86304 3.25059V5.38052H10.7849L8.86304 3.25059ZM11.8181 6.52675H7.68188V1.94073H1.18188V15.7049H11.8181V6.52675ZM4.13599 8.82331H2.9541V7.67506H4.13501L4.13599 8.82331ZM4.13599 11.1168H2.9541V9.9696H4.13501L4.13599 11.1168ZM4.13599 13.4113H2.9541V12.2641H4.13501L4.13599 13.4113ZM10.0459 8.82331H5.31909V7.67506H10.0459V8.82331ZM8.86401 11.1168H5.32007V9.9696H8.86401V11.1168ZM8.27197 13.4113H5.31909V12.2641H8.27197V13.4113Z" fill="#666666"/>
</svg>
