<svg width="13" height="23" viewBox="0 0 13 23" fill="none" xmlns="http://www.w3.org/2000/svg">
<path d="M7.99354 9.10543V8.35366H8.80458V7.60096H9.61475V4.88215H7.99354V3.37681H4.75446V4.12945H3.94441V4.88215H3.13423V7.60096H3.94441V8.35366H4.75446V9.10543H7.99354ZM7.23565 22.8755H5.52434V17.9757H2.04152V16.2343H5.52434V11.8822H4.34968V11.1304H2.72946V10.3787H1.91941V9.62596H1.10923V8.12148H0.300049V4.36076H1.10923V2.85715H1.91941V2.10445H2.72946V1.35181H4.34968V0.599976H8.39931V1.35181H10.0185V2.85715H11.6398V4.36076H12.4498V8.12148H11.6398V9.62596H10.8296V10.3787H10.0185V11.1304H8.39931V11.8822H7.23565V16.2343H10.7085V17.9757H7.23565V22.8755ZM12.4498 16.2334L10.7085 16.2343V14.492H12.4498V16.2334ZM2.04152 16.2343L0.300049 16.2334V14.492H2.04152V16.2343Z" fill="#F835BA"/>
</svg>
