<svg width="18" height="19" viewBox="0 0 18 19" fill="none" xmlns="http://www.w3.org/2000/svg">
<path d="M9 18C13.4183 18 17 14.4183 17 10C17 5.58172 13.4183 2 9 2C4.58172 2 1 5.58172 1 10C1 14.4183 4.58172 18 9 18Z" stroke="currentColor" stroke-width="1.2"/>
<path d="M8.26204 12.047C8.26204 12.047 8.25004 11.995 8.22604 11.891C8.20204 11.779 8.19004 11.647 8.19004 11.495C8.19004 11.159 8.26204 10.875 8.40604 10.643C8.55004 10.411 8.72604 10.207 8.93404 10.031C9.15004 9.847 9.36604 9.671 9.58204 9.503C9.79804 9.327 9.97804 9.135 10.122 8.927C10.266 8.711 10.338 8.451 10.338 8.147C10.338 7.835 10.226 7.571 10.002 7.355C9.78604 7.131 9.46604 7.019 9.04204 7.019C8.77804 7.019 8.55404 7.075 8.37004 7.187C8.18604 7.291 8.04204 7.411 7.93804 7.547C7.83404 7.675 7.77004 7.783 7.74604 7.871L6.54604 7.271C6.57804 7.215 6.63804 7.111 6.72604 6.959C6.82204 6.799 6.96604 6.631 7.15804 6.455C7.35004 6.279 7.60204 6.127 7.91404 5.999C8.23404 5.871 8.63404 5.807 9.11404 5.807C9.64204 5.807 10.106 5.907 10.506 6.107C10.906 6.307 11.214 6.575 11.43 6.911C11.654 7.247 11.766 7.619 11.766 8.027C11.766 8.451 11.69 8.807 11.538 9.095C11.386 9.383 11.198 9.627 10.974 9.827C10.75 10.019 10.522 10.199 10.29 10.367C10.066 10.535 9.87804 10.707 9.72604 10.883C9.57404 11.059 9.49804 11.275 9.49804 11.531C9.49804 11.659 9.50204 11.779 9.51004 11.891C9.51804 11.995 9.52204 12.047 9.52204 12.047H8.26204ZM9.00604 14.891C8.75804 14.891 8.55004 14.811 8.38204 14.651C8.22204 14.483 8.14204 14.279 8.14204 14.039C8.14204 13.791 8.22204 13.587 8.38204 13.427C8.55004 13.259 8.75804 13.175 9.00604 13.175C9.24604 13.175 9.45004 13.259 9.61804 13.427C9.78604 13.587 9.87004 13.791 9.87004 14.039C9.87004 14.279 9.78604 14.483 9.61804 14.651C9.45004 14.811 9.24604 14.891 9.00604 14.891Z" fill="currentColor"/>
</svg>
