<svg width="16" height="20" viewBox="0 0 16 20" fill="none" xmlns="http://www.w3.org/2000/svg">
<path fill-rule="evenodd" clip-rule="evenodd" d="M9.99973 0.150757H5.99963V1.15066H9.99973V0.150757ZM10.9998 1.15067H4.99963V2.15067H3.99988V3.15087H5.99958V2.15067H9.99976V3.15087H12V2.15067H10.9998V1.15067ZM3.99988 3.15088H4.99958V7.15067H10.9998V3.15088H11.9999V7.15067H11.9999V4.15057H12.9996V7.15067H13.9999V8.15076H14.9997H14.9997V9.15086H14.9997V17.1507H14.9997V18.1509H0.999512V17.1507V9.15086V8.15076H1.99971H1.99976V7.15067H2.99976V4.15057H3.99986V7.15067H3.99988V3.15088ZM1.99976 9.15086V9.15087H13.9998V17.1507H1.99971V9.15086H1.99976ZM1.99976 18.1509V19.1508H13.9999V18.1509H1.99976ZM0.999456 9.15088H-0.000244141V17.1507H0.999456V9.15088ZM15.9999 9.15088H14.9998V17.1507H15.9999V9.15088Z" fill="#666666"/>
</svg>
