<svg width="21" height="21" viewBox="0 0 21 21" fill="none" xmlns="http://www.w3.org/2000/svg">
<path d="M15.5601 20.0545V15.598H20.0103V20.0545H15.5601ZM13.3301 17.8263V15.598H15.5513V17.8263H13.3301ZM15.5601 15.598V13.3697H17.7803V15.598H15.5601ZM11.1113 15.598V13.3697V11.1414H15.5503V13.3697H13.3301V15.598H11.1113ZM4.44141 15.598V13.3697H2.22021V11.1414H4.44141V13.3697H11.1113V15.598H4.44141ZM13.3301 11.1414V4.45656H15.5513L15.5503 11.1414H13.3301ZM0 11.1414V4.45656H2.22021V11.1414H0ZM11.1113 4.45556V2.22828H13.3311L13.3301 4.45656L11.1113 4.45556ZM2.22021 4.45656V2.22828H4.44141V4.45656H2.22021ZM4.44141 2.22727V0H11.1113V2.22828L4.44141 2.22727Z" fill="#666666"/>
</svg>
