<svg width="13" height="17" viewBox="0 0 13 17" fill="none" xmlns="http://www.w3.org/2000/svg">
<path d="M6.983 4.31174L7.33701 5.05972C7.3743 5.14028 7.431 5.21044 7.5018 5.26398C7.57261 5.31752 7.65535 5.35279 7.74301 5.36673L8.53598 5.48672C8.63727 5.5055 8.73158 5.55153 8.80869 5.61984C8.88579 5.68816 8.94288 5.77619 8.97373 5.87448C9.00457 5.97277 9.00799 6.07758 8.98374 6.1777C8.95949 6.27782 8.90843 6.36944 8.83603 6.44272L8.26206 7.02472C8.1985 7.08985 8.15131 7.16915 8.12436 7.25607C8.09741 7.343 8.09145 7.43506 8.10703 7.52472L8.24204 8.34674C8.26262 8.44721 8.25431 8.55144 8.21811 8.6474C8.18191 8.74336 8.11927 8.82711 8.03745 8.88895C7.95563 8.95078 7.85814 8.98816 7.75595 8.9968C7.65376 9.00543 7.55109 8.98497 7.46005 8.93774L6.75009 8.54974C6.67344 8.50782 6.58747 8.48584 6.50009 8.48584C6.41272 8.48584 6.32675 8.50782 6.25009 8.54974L5.54013 8.93774C5.44906 8.98455 5.34649 9.0047 5.24448 8.99588C5.14247 8.98706 5.04516 8.94961 4.96347 8.88788C4.88179 8.82614 4.81913 8.74261 4.78281 8.64688C4.74648 8.55115 4.73798 8.44713 4.75815 8.34674L4.89316 7.52472C4.90882 7.43506 4.90278 7.34298 4.87583 7.25604C4.84887 7.16911 4.80176 7.0898 4.73813 7.02472L4.16416 6.44272C4.09176 6.36944 4.0407 6.27782 4.01645 6.1777C3.9922 6.07758 3.99562 5.97277 4.02646 5.87448C4.0573 5.77619 4.11439 5.68816 4.1915 5.61984C4.2686 5.55153 4.36292 5.5055 4.4642 5.48672L5.25717 5.36673C5.34481 5.35271 5.42759 5.31738 5.49838 5.26385C5.56917 5.21033 5.62581 5.14022 5.66318 5.05972L6.01718 4.31174C6.05916 4.21881 6.12707 4.13996 6.21274 4.08466C6.29841 4.02935 6.39812 3.99994 6.50009 3.99994C6.60206 3.99994 6.70178 4.02935 6.78745 4.08466C6.87312 4.13996 6.94102 4.21881 6.983 4.31174Z" fill="currentColor"/>
<path d="M12 15.0007L6.75385 11.4252L1 15.0007V3.51872C1 2.10865 1.97308 1.00073 3.11538 1.00073H9.88462C11.0692 1.00073 12 2.15901 12 3.51872V15.0007Z" stroke="currentColor" stroke-width="1.2" stroke-miterlimit="10"/>
</svg>
