<svg width="18" height="18" viewBox="0 0 18 18" fill="none" xmlns="http://www.w3.org/2000/svg">
<path fill-rule="evenodd" clip-rule="evenodd" d="M10.8996 7.10065L5.78507 12.2155C5.65214 12.1385 5.5262 12.0896 5.41425 12.0826C4.44173 12.0126 4.06392 12.1246 3.53218 11.6697C2.95846 11.1799 3.00044 9.87149 3.00044 8.91289C3.00044 7.95429 2.95846 6.64584 3.53218 6.15604C4.06392 5.70123 4.44173 5.82018 5.41425 5.74321C6.38677 5.66625 8.44376 2.69948 10.032 3.63709C10.6757 4.16187 10.8506 5.14146 10.8996 7.10065Z" stroke="black" stroke-width="1.5" stroke-linecap="round" stroke-linejoin="round"/>
<path d="M10.8996 10.4375C10.8716 12.5926 10.7037 13.6422 10.032 14.1879C9.29736 14.6218 8.46477 14.2229 7.68115 13.6562" stroke="black" stroke-width="1.5" stroke-linecap="round" stroke-linejoin="round"/>
<path d="M3.00073 15L5.78536 12.2152L10.8998 7.10029L14.9998 3" stroke="black" stroke-width="1.5" stroke-linecap="round" stroke-linejoin="round"/>
</svg>
