<svg width="18" height="18" viewBox="0 0 18 18" fill="none" xmlns="http://www.w3.org/2000/svg">
<g clip-path="url(#clip0_134_323)">
<path d="M15.3 5.1055C15.3 4.68726 14.796 4.42587 14.4936 4.68726L13.6872 5.31462C12.528 3.64168 10.764 2.70065 8.74795 2.70065C5.42155 2.64837 2.69995 5.52373 2.69995 8.97416C2.69995 12.4769 5.42155 15.3 8.79835 15.3C9.90715 15.3 10.9656 14.9863 11.9232 14.4112C12.2256 14.2021 12.528 13.993 12.78 13.7839C12.9816 13.5747 13.032 13.2611 12.8304 13.0519C12.6288 12.8428 12.3264 12.7905 12.1248 12.9997C11.9232 13.2088 11.6712 13.3656 11.4192 13.5225C10.6128 13.993 9.75595 14.2544 8.79835 14.2544C5.97595 14.2544 3.70795 11.8495 3.70795 8.97416C3.70795 6.0988 5.97595 3.69396 8.79835 3.69396C10.4616 3.69396 11.9736 4.53043 12.9312 5.94197L11.9736 6.72615C11.6208 6.98755 11.7216 7.51034 12.1248 7.66718L14.6448 8.39909C14.9472 8.50365 15.3 8.24225 15.3 7.8763V5.1055Z" fill="currentColor"/>
</g>
<defs>
<clipPath id="clip0_134_323">
<rect width="18" height="18" fill="currentColor"/>
</clipPath>
</defs>
</svg>
