<svg width="202" height="22" viewBox="0 0 202 22" fill="none" xmlns="http://www.w3.org/2000/svg">
<path d="M199 13.5C199 13.2033 199.088 12.9133 199.253 12.6667C199.418 12.42 199.652 12.2277 199.926 12.1142C200.2 12.0006 200.502 11.9709 200.793 12.0288C201.084 12.0867 201.351 12.2296 201.561 12.4393C201.77 12.6491 201.913 12.9164 201.971 13.2074C202.029 13.4984 201.999 13.8 201.886 14.074C201.772 14.3481 201.58 14.5824 201.333 14.7472C201.087 14.912 200.797 15 200.5 15C200.102 15 199.721 14.842 199.439 14.5607C199.158 14.2794 199 13.8978 199 13.5ZM199 9.50001C199 9.20334 199.088 8.91334 199.253 8.66667C199.418 8.42 199.652 8.22771 199.926 8.11418C200.2 8.00065 200.502 7.97095 200.793 8.02882C201.084 8.0867 201.351 8.22957 201.561 8.43935C201.77 8.64912 201.913 8.91641 201.971 9.20738C202.029 9.49835 201.999 9.79996 201.886 10.074C201.772 10.3481 201.58 10.5824 201.333 10.7472C201.087 10.912 200.797 11 200.5 11C200.102 11 199.721 10.842 199.439 10.5607C199.158 10.2794 199 9.89784 199 9.50001ZM199 5.50001C199 5.20334 199.088 4.91334 199.253 4.66667C199.418 4.42 199.652 4.22771 199.926 4.11418C200.2 4.00065 200.502 3.97095 200.793 4.02882C201.084 4.0867 201.351 4.22957 201.561 4.43935C201.77 4.64912 201.913 4.91641 201.971 5.20738C202.029 5.49835 201.999 5.79996 201.886 6.07405C201.772 6.34814 201.58 6.58238 201.333 6.74721C201.087 6.91203 200.797 7.00001 200.5 7.00001C200.102 7.00001 199.721 6.84199 199.439 6.56068C199.158 6.27938 199 5.89784 199 5.50001Z" fill="#8D8D8D"/>
<path d="M81.983 6.31107L82.337 7.05905C82.3743 7.1396 82.431 7.20977 82.5018 7.26331C82.5726 7.31684 82.6553 7.35212 82.743 7.36606L83.536 7.48605C83.6373 7.50483 83.7316 7.55086 83.8087 7.61917C83.8858 7.68748 83.9429 7.77552 83.9737 7.87381C84.0046 7.9721 84.008 8.07691 83.9837 8.17703C83.9595 8.27715 83.9084 8.36877 83.836 8.44205L83.2621 9.02405C83.1985 9.08918 83.1513 9.16848 83.1244 9.2554C83.0974 9.34232 83.0915 9.43439 83.107 9.52405L83.242 10.3461C83.2626 10.4465 83.2543 10.5508 83.2181 10.6467C83.1819 10.7427 83.1193 10.8264 83.0374 10.8883C82.9556 10.9501 82.8581 10.9875 82.756 10.9961C82.6538 11.0048 82.5511 10.9843 82.4601 10.9371L81.7501 10.5491C81.6734 10.5071 81.5875 10.4852 81.5001 10.4852C81.4127 10.4852 81.3268 10.5071 81.2501 10.5491L80.5401 10.9371C80.4491 10.9839 80.3465 11.004 80.2445 10.9952C80.1425 10.9864 80.0452 10.9489 79.9635 10.8872C79.8818 10.8255 79.8191 10.7419 79.7828 10.6462C79.7465 10.5505 79.738 10.4465 79.7581 10.3461L79.8932 9.52405C79.9088 9.43439 79.9028 9.34231 79.8758 9.25537C79.8489 9.16843 79.8018 9.08913 79.7381 9.02405L79.1642 8.44205C79.0918 8.36877 79.0407 8.27715 79.0165 8.17703C78.9922 8.07691 78.9956 7.9721 79.0265 7.87381C79.0573 7.77552 79.1144 7.68748 79.1915 7.61917C79.2686 7.55086 79.3629 7.50483 79.4642 7.48605L80.2572 7.36606C80.3448 7.35204 80.4276 7.31671 80.4984 7.26318C80.5692 7.20965 80.6258 7.13955 80.6632 7.05905L81.0172 6.31107C81.0592 6.21814 81.1271 6.13929 81.2127 6.08398C81.2984 6.02868 81.3981 5.99927 81.5001 5.99927C81.6021 5.99927 81.7018 6.02868 81.7874 6.08398C81.8731 6.13929 81.941 6.21814 81.983 6.31107Z" fill="#8D8D8D"/>
<path d="M87 17L81.7538 13.4245L76 17V5.51799C76 4.10791 76.9731 3 78.1154 3H84.8846C86.0692 3 87 4.15827 87 5.51799V17Z" stroke="#8D8D8D" stroke-width="1.2" stroke-miterlimit="10"/>
<path d="M143 3.75H135C134.31 3.75 133.75 4.30964 133.75 5V13C133.75 13.6904 134.31 14.25 135 14.25H143C143.69 14.25 144.25 13.6904 144.25 13V5C144.25 4.30964 143.69 3.75 143 3.75Z" stroke="#8D8D8D" stroke-width="1.2"/>
<path d="M146 6.75H138C137.31 6.75 136.75 7.30964 136.75 8V16C136.75 16.6904 137.31 17.25 138 17.25H146C146.69 17.25 147.25 16.6904 147.25 16V8C147.25 7.30964 146.69 6.75 146 6.75Z" stroke="#8D8D8D" stroke-width="1.2"/>
<path d="M54 1.41663H6C2.96243 1.41663 0.5 3.46865 0.5 5.99996V16C0.5 18.5313 2.96243 20.5833 6 20.5833H54C57.0376 20.5833 59.5 18.5313 59.5 16V5.99996C59.5 3.46865 57.0376 1.41663 54 1.41663Z" stroke="#CFCFCF"/>
<path d="M29.518 12.407C29.518 12.221 29.443 12.047 29.293 11.885C29.143 11.723 28.954 11.576 28.726 11.444C28.504 11.306 28.201 11.138 27.817 10.94C27.361 10.7 26.995 10.496 26.719 10.328C26.443 10.154 26.206 9.95 26.008 9.716C25.816 9.482 25.72 9.224 25.72 8.942C25.72 8.642 25.846 8.321 26.098 7.979C26.35 7.631 26.656 7.34 27.016 7.106C27.382 6.866 27.718 6.746 28.024 6.746C28.396 6.746 28.828 6.791 29.32 6.881C29.812 6.971 30.172 7.067 30.4 7.169V8.915H30.058C29.764 8.429 29.44 8.051 29.086 7.781C28.738 7.511 28.372 7.376 27.988 7.376C27.646 7.376 27.373 7.484 27.169 7.7C26.971 7.91 26.872 8.186 26.872 8.528C26.872 8.726 26.947 8.912 27.097 9.086C27.253 9.254 27.442 9.404 27.664 9.536C27.892 9.668 28.207 9.839 28.609 10.049C29.053 10.271 29.413 10.469 29.689 10.643C29.965 10.811 30.196 11.009 30.382 11.237C30.574 11.459 30.67 11.711 30.67 11.993C30.67 12.293 30.535 12.617 30.265 12.965C29.995 13.307 29.665 13.598 29.275 13.838C28.891 14.072 28.54 14.189 28.222 14.189C27.832 14.189 27.367 14.144 26.827 14.054C26.293 13.964 25.909 13.868 25.675 13.766V12.02H26.017C26.323 12.506 26.671 12.884 27.061 13.154C27.451 13.424 27.853 13.559 28.267 13.559C28.513 13.559 28.732 13.505 28.924 13.397C29.116 13.289 29.263 13.148 29.365 12.974C29.467 12.794 29.518 12.605 29.518 12.407ZM37.0888 14H35.3788V10.967C35.3788 10.637 35.3278 10.406 35.2258 10.274C35.1238 10.142 34.9408 10.076 34.6768 10.076C34.4788 10.076 34.2808 10.112 34.0828 10.184C33.8908 10.256 33.6628 10.394 33.3988 10.598V13.325L34.2088 13.64L34.0288 14H31.5178V13.721L32.3188 13.091V7.556L31.5178 6.998V6.719L33.0568 6.143H33.3988V10.175L34.6318 9.203C34.7578 9.155 34.9228 9.131 35.1268 9.131C35.5348 9.131 35.8588 9.257 36.0988 9.509C36.3388 9.755 36.4588 10.091 36.4588 10.517V13.325L37.2688 13.64L37.0888 14ZM42.5807 14H40.8707V13.217L39.8537 14.018C39.7337 14.066 39.5837 14.09 39.4037 14.09C38.8877 14.09 38.5127 13.961 38.2787 13.703C38.0507 13.445 37.9367 13.136 37.9367 12.776C37.9367 12.56 38.0147 12.347 38.1707 12.137C38.3267 11.927 38.5487 11.729 38.8367 11.543H40.8707V10.967C40.8707 10.577 40.7657 10.301 40.5557 10.139C40.3517 9.977 40.0697 9.896 39.7097 9.896C39.3377 9.896 38.8817 10.121 38.3417 10.571L38.0717 10.229L39.3677 9.203C39.6077 9.155 39.8957 9.131 40.2317 9.131C40.7777 9.131 41.2007 9.266 41.5007 9.536C41.8007 9.8 41.9507 10.187 41.9507 10.697V13.325L42.7607 13.64L42.5807 14ZM39.6917 13.325C40.0577 13.325 40.4507 13.157 40.8707 12.821V11.912H39.2777C39.1997 12.008 39.1427 12.104 39.1067 12.2C39.0767 12.296 39.0617 12.401 39.0617 12.515C39.0617 12.737 39.1187 12.929 39.2327 13.091C39.3467 13.247 39.4997 13.325 39.6917 13.325ZM46.6316 9.14C46.8296 9.14 47.0036 9.194 47.1536 9.302C47.3036 9.41 47.4206 9.56 47.5046 9.752L46.9106 10.499H46.5686C46.5446 10.349 46.4996 10.244 46.4336 10.184C46.3736 10.118 46.2896 10.085 46.1816 10.085C46.0496 10.085 45.9086 10.121 45.7586 10.193C45.6146 10.259 45.4496 10.388 45.2636 10.58V13.262L46.5236 13.649L46.3436 14.009H43.3826V13.73L44.1836 13.1V10.553L43.3826 10.085V9.806L44.9216 9.05L45.2006 10.157L46.1366 9.203C46.2626 9.155 46.4276 9.131 46.6316 9.131V9.14ZM51.0196 14.018C50.7796 14.066 50.4916 14.09 50.1556 14.09C49.7596 14.09 49.4026 13.988 49.0846 13.784C48.7726 13.574 48.5266 13.292 48.3466 12.938C48.1726 12.584 48.0856 12.194 48.0856 11.768C48.0856 11.306 48.2266 10.874 48.5086 10.472C48.7906 10.064 49.1416 9.74 49.5616 9.5C49.9876 9.254 50.3986 9.131 50.7946 9.131C51.3646 9.131 51.8056 9.356 52.1176 9.806C52.4356 10.256 52.5946 10.85 52.5946 11.588H49.2646C49.3006 12.098 49.4386 12.515 49.6786 12.839C49.9246 13.163 50.2576 13.325 50.6776 13.325C51.0676 13.325 51.6226 13.022 52.3426 12.416L52.6126 12.758L51.0196 14.018ZM50.2726 9.887C49.6246 9.887 49.2856 10.331 49.2556 11.219H51.3616C51.3076 10.895 51.2506 10.649 51.1906 10.481C51.1366 10.307 51.0376 10.166 50.8936 10.058C50.7556 9.944 50.5486 9.887 50.2726 9.887Z" fill="#848484"/>
<path d="M12.25 10.616L11.75 9.75L15.25 7.75L15.75 8.61603L12.25 10.616Z" fill="#8D8D8D"/>
<path d="M12.25 11.25L11.7222 12.144L15.25 13.7499L15.7778 12.856L12.25 11.25Z" fill="#8D8D8D"/>
<path d="M10.75 11.75C11.3023 11.75 11.75 11.3023 11.75 10.75C11.75 10.1977 11.3023 9.75 10.75 9.75C10.1977 9.75 9.75 10.1977 9.75 10.75C9.75 11.3023 10.1977 11.75 10.75 11.75Z" fill="white"/>
<path d="M10.75 12.5C11.7165 12.5 12.5 11.7165 12.5 10.75C12.5 9.7835 11.7165 9 10.75 9C9.7835 9 9 9.7835 9 10.75C9 11.7165 9.7835 12.5 10.75 12.5Z" stroke="#8D8D8D" stroke-width="1.2"/>
<path d="M16.75 9.5C17.7165 9.5 18.5 8.7165 18.5 7.75C18.5 6.7835 17.7165 6 16.75 6C15.7835 6 15 6.7835 15 7.75C15 8.7165 15.7835 9.5 16.75 9.5Z" stroke="#8D8D8D" stroke-width="1.2"/>
<path d="M16.75 15.5C17.7165 15.5 18.5 14.7165 18.5 13.75C18.5 12.7835 17.7165 12 16.75 12C15.7835 12 15 12.7835 15 13.75C15 14.7165 15.7835 15.5 16.75 15.5Z" stroke="#8D8D8D" stroke-width="1.2"/>
<path d="M177.518 9.78456C177.258 9.78456 177.058 9.99994 177.058 10.2615C177.058 11.0384 176.909 11.7923 176.62 12.5077C176.056 13.8923 174.995 14.9923 173.659 15.5769C172.977 15.8769 172.242 16.0308 171.493 16.0308C170.743 16.0308 170.016 15.8769 169.326 15.5769C167.99 14.9923 166.929 13.8923 166.365 12.5077C166.076 11.8 165.928 11.0384 165.928 10.2615C165.928 9.48455 166.076 8.7307 166.365 8.01531C166.929 6.63068 167.99 5.53068 169.326 4.94606C170.009 4.64605 170.743 4.49221 171.493 4.49221C171.782 4.49221 172.064 4.51528 172.353 4.56144L171.537 4.89221C171.3 4.99221 171.181 5.26914 171.27 5.51529C171.359 5.76145 171.634 5.88453 171.871 5.79222L173.86 4.99221C174.097 4.89221 174.216 4.61528 174.127 4.36913L173.34 2.30757C173.244 2.06142 172.977 1.93834 172.739 2.03065C172.502 2.13065 172.383 2.40757 172.472 2.65373L172.858 3.68451C172.405 3.58451 171.945 3.53066 171.485 3.53066C170.61 3.53066 169.756 3.70758 168.955 4.06143C167.397 4.74605 166.158 6.03068 165.497 7.64608C165.171 8.47685 165 9.35378 165 10.2615C165 11.1692 165.171 12.0538 165.512 12.8846C166.172 14.5 167.412 15.7846 168.97 16.4692C169.771 16.8231 170.624 17 171.5 17C172.376 17 173.229 16.8231 174.03 16.4692C175.588 15.7846 176.828 14.5 177.488 12.8846C177.829 12.0538 178 11.1692 178 10.2615C177.985 9.99994 177.777 9.78456 177.518 9.78456C177.525 9.78456 177.525 9.78456 177.518 9.78456Z" fill="#8D8D8D"/>
<path d="M177.518 9.78456C177.258 9.78456 177.058 9.99994 177.058 10.2615C177.058 11.0384 176.909 11.7923 176.62 12.5077C176.056 13.8923 174.995 14.9923 173.659 15.5769C172.977 15.8769 172.242 16.0308 171.493 16.0308C170.743 16.0308 170.016 15.8769 169.326 15.5769C167.99 14.9923 166.929 13.8923 166.365 12.5077C166.076 11.8 165.928 11.0384 165.928 10.2615C165.928 9.48455 166.076 8.7307 166.365 8.01531C166.929 6.63068 167.99 5.53068 169.326 4.94606C170.009 4.64605 170.743 4.49221 171.493 4.49221C171.782 4.49221 172.064 4.51528 172.353 4.56144L171.537 4.89221C171.3 4.99221 171.181 5.26914 171.27 5.51529C171.359 5.76145 171.634 5.88453 171.871 5.79222L173.86 4.99221C174.097 4.89221 174.216 4.61528 174.127 4.36913L173.34 2.30757C173.244 2.06142 172.977 1.93834 172.739 2.03065C172.502 2.13065 172.383 2.40757 172.472 2.65373L172.858 3.68451C172.405 3.58451 171.945 3.53066 171.485 3.53066C170.61 3.53066 169.756 3.70758 168.955 4.06143C167.397 4.74605 166.158 6.03068 165.497 7.64608C165.171 8.47685 165 9.35378 165 10.2615C165 11.1692 165.171 12.0538 165.512 12.8846C166.172 14.5 167.412 15.7846 168.97 16.4692C169.771 16.8231 170.624 17 171.5 17C172.376 17 173.229 16.8231 174.03 16.4692C175.588 15.7846 176.828 14.5 177.488 12.8846C177.829 12.0538 178 11.1692 178 10.2615C177.985 9.99994 177.777 9.78456 177.518 9.78456C177.525 9.78456 177.525 9.78456 177.518 9.78456Z" fill="black" fill-opacity="0.2"/>
<path d="M177.518 9.78456C177.258 9.78456 177.058 9.99994 177.058 10.2615C177.058 11.0384 176.909 11.7923 176.62 12.5077C176.056 13.8923 174.995 14.9923 173.659 15.5769C172.977 15.8769 172.242 16.0308 171.493 16.0308C170.743 16.0308 170.016 15.8769 169.326 15.5769C167.99 14.9923 166.929 13.8923 166.365 12.5077C166.076 11.8 165.928 11.0384 165.928 10.2615C165.928 9.48455 166.076 8.7307 166.365 8.01531C166.929 6.63069 167.99 5.53068 169.326 4.94606C170.009 4.64605 170.743 4.49221 171.493 4.49221C171.782 4.49221 172.064 4.51528 172.353 4.56144L171.537 4.89221C171.3 4.99221 171.181 5.26914 171.27 5.51529C171.359 5.76145 171.634 5.88453 171.871 5.79222L173.86 4.99221C174.097 4.89221 174.216 4.61528 174.127 4.36913L173.34 2.30757C173.244 2.06142 172.977 1.93834 172.739 2.03065C172.502 2.13065 172.383 2.40757 172.472 2.65373L172.858 3.68451C172.405 3.58451 171.945 3.53066 171.485 3.53066C170.61 3.53066 169.756 3.70758 168.955 4.06143C167.397 4.74605 166.158 6.03068 165.497 7.64608C165.171 8.47685 165 9.35378 165 10.2615C165 11.1692 165.171 12.0538 165.512 12.8846C166.172 14.5 167.412 15.7846 168.97 16.4692C169.771 16.8231 170.624 17 171.5 17C172.376 17 173.229 16.8231 174.03 16.4692C175.588 15.7846 176.828 14.5 177.488 12.8846C177.829 12.0538 178 11.1692 178 10.2615C177.985 9.99994 177.777 9.78456 177.518 9.78456ZM177.518 9.78456C177.525 9.78456 177.525 9.78456 177.518 9.78456Z" stroke="#8D8D8D" stroke-width="0.3"/>
<g clip-path="url(#clip0_342_19664)">
<g clip-path="url(#clip1_342_19664)">
<g clip-path="url(#clip2_342_19664)">
<path d="M102.009 9.39603C102.919 5.07219 107.224 2.27598 111.638 3.16041C114.833 3.80362 117.335 6.26035 117.991 9.39603C118.054 9.69977 117.854 9.99458 117.545 10.0571C117.235 10.1196 116.935 9.92311 116.871 9.61937C116.089 5.89407 112.384 3.49095 108.589 4.2503C106.205 4.73271 104.239 6.39435 103.401 8.64561L104.657 8.23467C104.958 8.1364 105.276 8.2972 105.376 8.59201C105.477 8.88682 105.313 9.19949 105.021 9.29776L102.746 10.0392C102.446 10.1375 102.127 9.97671 102.027 9.6819C102 9.59257 101.991 9.4943 102.009 9.39603ZM110.155 7.46638C110.382 7.46638 110.582 7.60038 110.673 7.80585L113.331 13.7645C113.467 14.0415 113.34 14.372 113.058 14.506C112.776 14.64 112.439 14.515 112.302 14.238C112.293 14.2291 112.293 14.2201 112.284 14.2023L111.602 12.6746H108.698L108.016 14.2023C107.888 14.4792 107.552 14.6043 107.26 14.4792C106.978 14.3542 106.851 14.0325 106.969 13.7556L109.627 7.79692C109.718 7.59145 109.927 7.46638 110.155 7.46638ZM111.11 11.5579L110.155 9.4139L109.199 11.5579H111.11ZM103.128 12.3798C103.056 12.0761 102.755 11.8885 102.446 11.96C102.146 12.0225 101.954 12.3084 102.009 12.6032C102.91 16.9359 107.224 19.7322 111.638 18.8388C114.842 18.1956 117.335 15.7389 117.991 12.6032C118.054 12.2994 117.854 12.0046 117.545 11.9421C117.436 11.9242 117.326 11.9332 117.226 11.9689L115.251 12.7104C114.96 12.8265 114.824 13.1571 114.942 13.4429C115.06 13.7199 115.37 13.8539 115.661 13.7556L116.571 13.4161C115.215 16.9806 111.165 18.7852 107.533 17.4541C105.276 16.6143 103.611 14.7026 103.128 12.3798Z" fill="#8D8D8D"/>
</g>
</g>
</g>
<defs>
<clipPath id="clip0_342_19664">
<rect width="16" height="16" fill="white" transform="translate(102 3)"/>
</clipPath>
<clipPath id="clip1_342_19664">
<rect width="16" height="16" fill="white" transform="translate(102 3)"/>
</clipPath>
<clipPath id="clip2_342_19664">
<rect width="16" height="16" fill="white" transform="translate(102 3)"/>
</clipPath>
</defs>
</svg>
