<svg width="18" height="18" viewBox="0 0 18 18" fill="none" xmlns="http://www.w3.org/2000/svg">
<path d="M12.375 16.875H5.625V18H12.375V16.875Z" fill="#F7FEFF"/>
<path d="M14.625 15.75H12.375V16.875H14.625V15.75Z" fill="#F7FEFF"/>
<path d="M12.375 15.75H5.625V16.875H12.375V15.75Z" fill="#231E2B"/>
<path d="M5.625 15.75H3.375V16.875H5.625V15.75Z" fill="#F7FEFF"/>
<path d="M15.75 14.625H14.625V15.75H15.75V14.625Z" fill="#F7FEFF"/>
<path d="M14.625 14.625H12.375V15.75H14.625V14.625Z" fill="#231E2B"/>
<path d="M5.625 14.625H3.375V15.75H5.625V14.625Z" fill="#231E2B"/>
<path d="M3.375 14.625H2.25V15.75H3.375V14.625Z" fill="#F7FEFF"/>
<path d="M16.875 13.5H15.75V14.625H16.875V13.5Z" fill="#F7FEFF"/>
<path d="M15.75 13.5H14.625V14.625H15.75V13.5Z" fill="#231E2B"/>
<path d="M11.25 13.5V14.625H10.125V12.375H9V11.25H7.875V13.5H6.75V12.375H5.625V13.5H4.5V14.625H5.625V15.75H12.375V13.5H11.25Z" fill="#F5F38E"/>
<path d="M4.5 13.5H3.375V14.625H4.5V13.5Z" fill="#E2B436"/>
<path d="M3.375 13.5H2.25V14.625H3.375V13.5Z" fill="#231E2B"/>
<path d="M2.25 13.5H1.125V14.625H2.25V13.5Z" fill="#F7FEFF"/>
<path d="M15.75 12.375H14.625V13.5H15.75V12.375Z" fill="#C2751D"/>
<path d="M14.625 12.375H13.5V13.5H14.625V12.375Z" fill="#CF8934"/>
<path d="M13.5 11.25H12.375V12.375H11.25V11.25H10.125V10.125H9V7.875H7.875V11.25H9V12.375H10.125V14.625H11.25V13.5H12.375V14.625H14.625V13.5H13.5V11.25Z" fill="#E2B436"/>
<path d="M4.5 12.375H3.375V13.5H4.5V12.375Z" fill="#CF8934"/>
<path d="M3.375 12.375H2.25V13.5H3.375V12.375Z" fill="#C2751D"/>
<path d="M2.25 9H1.125V13.5H2.25V9Z" fill="#231E2B"/>
<path d="M16.875 9H15.75V13.5H16.875V9Z" fill="#231E2B"/>
<path d="M15.75 11.25H14.625V12.375H15.75V11.25Z" fill="#B0392E"/>
<path d="M12.375 11.25H11.25V12.375H12.375V11.25Z" fill="#CF8934"/>
<path d="M4.5 11.25V10.125H3.375V12.375H4.5V13.5H5.625V12.375H6.75V13.5H7.875V11.25H4.5Z" fill="#E2B436"/>
<path d="M3.375 10.125H2.25V12.375H3.375V10.125Z" fill="#B0392E"/>
<path d="M1.125 9H0V13.5H1.125V9Z" fill="#F7FEFF"/>
<path d="M14.625 10.125H13.5V12.375H14.625V10.125Z" fill="#C2751D"/>
<path d="M13.5 10.125H12.375V11.25H13.5V10.125Z" fill="#CF8934"/>
<path d="M12.375 10.125H11.25V11.25H12.375V10.125Z" fill="#C2751D"/>
<path d="M11.25 10.125H10.125V11.25H11.25V10.125Z" fill="#CF8934"/>
<path d="M7.875 10.125H6.75V11.25H7.875V10.125Z" fill="#F5F38E"/>
<path d="M6.75 10.125H5.625V11.25H6.75V10.125Z" fill="#CF8934"/>
<path d="M5.625 10.125H4.5V11.25H5.625V10.125Z" fill="#C2751D"/>
<path d="M18 9H16.875V13.5H18V9Z" fill="#F7FEFF"/>
<path d="M15.75 9H14.625V11.25H15.75V9Z" fill="#892727"/>
<path d="M13.5 9H12.375V10.125H13.5V9Z" fill="#E2B436"/>
<path d="M12.375 7.875H11.25V10.125H12.375V7.875Z" fill="#B0392E"/>
<path d="M11.25 6.75H10.125V7.875H9V9H10.125V10.125H11.25V6.75Z" fill="#C2751D"/>
<path d="M10.125 9H9V10.125H10.125V9Z" fill="#F5F38E"/>
<path d="M7.875 9H6.75V10.125H7.875V9Z" fill="#CF8934"/>
<path d="M6.75 9H5.625V10.125H6.75V9Z" fill="#C2751D"/>
<path d="M5.625 9H4.5V10.125H5.625V9Z" fill="#B0392E"/>
<path d="M4.5 9H3.375V10.125H4.5V9Z" fill="#C2751D"/>
<path d="M3.375 9H2.25V10.125H3.375V9Z" fill="#892727"/>
<path d="M14.625 7.875H13.5V10.125H14.625V7.875Z" fill="#B0392E"/>
<path d="M13.5 7.875H12.375V9H13.5V7.875Z" fill="#892727"/>
<path d="M7.875 7.875H6.75V9H7.875V7.875Z" fill="#C2751D"/>
<path d="M6.75 7.875H5.625V9H6.75V7.875Z" fill="#B0392E"/>
<path d="M4.5 7.875H3.375V9H4.5V7.875Z" fill="#B0392E"/>
<path d="M3.375 6.75H2.25V9H3.375V6.75Z" fill="#231E2B"/>
<path d="M2.25 6.75H1.125V9H2.25V6.75Z" fill="#F7FEFF"/>
<path d="M16.875 5.625H15.75V9H16.875V5.625Z" fill="#F7FEFF"/>
<path d="M14.625 5.625H13.5V7.875H14.625V5.625Z" fill="#892727"/>
<path d="M13.5 5.625H12.375V7.875H13.5V5.625Z" fill="#231E2B"/>
<path d="M12.375 5.625H11.25V7.875H12.375V5.625Z" fill="#892727"/>
<path d="M10.125 6.75H9V7.875H10.125V6.75Z" fill="#CF8934"/>
<path d="M7.875 6.75H6.75V7.875H7.875V6.75Z" fill="#B0392E"/>
<path d="M4.5 6.75H3.375V7.875H4.5V6.75Z" fill="#892727"/>
<path d="M15.75 5.625H14.625V9H15.75V5.625Z" fill="#231E2B"/>
<path d="M11.25 5.625H10.125V6.75H11.25V5.625Z" fill="#B0392E"/>
<path d="M10.125 5.625H9V6.75H10.125V5.625Z" fill="#E2B436"/>
<path d="M9 5.625H7.875V7.875H9V5.625Z" fill="#C2751D"/>
<path d="M7.875 4.5H6.75V6.75H7.875V4.5Z" fill="#892727"/>
<path d="M5.625 6.75H4.5V9H5.625V7.875H6.75V4.5H5.625V6.75Z" fill="#231E2B"/>
<path d="M4.5 6.75H5.625V4.5H3.375V5.625H4.5V6.75Z" fill="#F7FEFF"/>
<path d="M4.5 5.625H3.375V6.75H4.5V5.625Z" fill="#231E2B"/>
<path d="M3.375 5.625H2.25V6.75H3.375V5.625Z" fill="#F7FEFF"/>
<path d="M15.75 4.5H14.625V5.625H15.75V4.5Z" fill="#F7FEFF"/>
<path d="M14.625 4.5H13.5V5.625H14.625V4.5Z" fill="#231E2B"/>
<path d="M13.5 4.5H12.375V5.625H13.5V4.5Z" fill="#F7FEFF"/>
<path d="M12.375 4.5H11.25V5.625H12.375V4.5Z" fill="#231E2B"/>
<path d="M11.25 4.5H10.125V5.625H11.25V4.5Z" fill="#892727"/>
<path d="M10.125 4.5H9V5.625H10.125V4.5Z" fill="#C2751D"/>
<path d="M9 3.375H7.875V5.625H9V3.375Z" fill="#B0392E"/>
<path d="M14.625 3.375H13.5V4.5H14.625V3.375Z" fill="#F7FEFF"/>
<path d="M12.375 3.375H11.25V4.5H12.375V3.375Z" fill="#F7FEFF"/>
<path d="M11.25 3.375H10.125V4.5H11.25V3.375Z" fill="#231E2B"/>
<path d="M10.125 3.375H9V4.5H10.125V3.375Z" fill="#892727"/>
<path d="M7.875 2.25H6.75V4.5H7.875V2.25Z" fill="#231E2B"/>
<path d="M6.75 2.25H5.625V4.5H6.75V2.25Z" fill="#F7FEFF"/>
<path d="M11.25 2.25H10.125V3.375H11.25V2.25Z" fill="#F7FEFF"/>
<path d="M10.125 2.25H9V3.375H10.125V2.25Z" fill="#231E2B"/>
<path d="M9 2.25H7.875V3.375H9V2.25Z" fill="#892727"/>
<path d="M10.125 1.125H9V2.25H10.125V1.125Z" fill="#F7FEFF"/>
<path d="M9 1.125H7.875V2.25H9V1.125Z" fill="#231E2B"/>
<path d="M7.875 1.125H6.75V2.25H7.875V1.125Z" fill="#F7FEFF"/>
<path d="M9 0H7.875V1.125H9V0Z" fill="#F7FEFF"/>
</svg>
