<svg width="18" height="18" viewBox="0 0 18 18" fill="none" xmlns="http://www.w3.org/2000/svg">
<path d="M1.8093 7.55891C2.14878 5.93282 3.0497 4.47165 4.35979 3.42236C5.66987 2.37306 7.30879 1.79999 8.99955 1.79999C10.6903 1.79999 12.3292 2.37306 13.6393 3.42236C14.9494 4.47165 15.8503 5.93282 16.1898 7.55891C16.2032 7.62359 16.2035 7.69022 16.1906 7.755C16.1777 7.81978 16.152 7.88144 16.1149 7.93647C16.0778 7.99149 16.03 8.03879 15.9742 8.07568C15.9185 8.11256 15.8559 8.1383 15.79 8.15144C15.7241 8.16457 15.6563 8.16484 15.5903 8.15222C15.5243 8.1396 15.4615 8.11435 15.4054 8.0779C15.3494 8.04145 15.3012 7.99453 15.2636 7.9398C15.2261 7.88507 15.1998 7.82361 15.1865 7.75893C14.9103 6.43621 14.2019 5.23814 13.1689 4.34674C12.1359 3.45535 10.8347 2.91934 9.4631 2.82017C8.09149 2.721 6.72439 3.06407 5.5695 3.79728C4.41462 4.53048 3.53507 5.61374 3.06449 6.88246L4.19683 6.51157C4.32568 6.46932 4.46634 6.47904 4.58787 6.53861C4.70941 6.59818 4.80187 6.7027 4.84491 6.82919C4.88795 6.95568 4.87804 7.09378 4.81737 7.2131C4.75669 7.33242 4.65022 7.42319 4.52138 7.46544L2.47375 8.13586C2.38856 8.16372 2.2974 8.16909 2.20942 8.15143C2.12144 8.13377 2.03975 8.09371 1.97253 8.03525C1.90531 7.9768 1.85494 7.90201 1.82647 7.8184C1.798 7.73479 1.79243 7.6453 1.81032 7.55891H1.8093ZM9.13572 5.81602C9.23528 5.81607 9.33266 5.84462 9.41595 5.89818C9.49923 5.95174 9.5648 6.02798 9.60463 6.11756L11.9932 11.4779C12.0225 11.5387 12.0391 11.6047 12.042 11.6719C12.0449 11.7392 12.034 11.8063 12.01 11.8693C11.9859 11.9324 11.9492 11.99 11.9021 12.0388C11.8549 12.0877 11.7983 12.1267 11.7354 12.1537C11.6726 12.1806 11.6049 12.1949 11.5364 12.1956C11.4678 12.1964 11.3998 12.1836 11.3364 12.1581C11.273 12.1326 11.2154 12.0948 11.1671 12.047C11.1189 11.9992 11.0809 11.9424 11.0554 11.88L10.4431 10.507H7.82831L7.21606 11.881C7.16057 12.0015 7.05893 12.0956 6.93319 12.1431C6.80744 12.1905 6.66772 12.1873 6.54432 12.1343C6.42092 12.0813 6.32379 11.9826 6.27398 11.8598C6.22417 11.7369 6.22571 11.5997 6.27825 11.4779L8.66681 6.11756C8.70663 6.02798 8.7722 5.95174 8.85549 5.89818C8.93877 5.84462 9.03616 5.81607 9.13572 5.81602ZM9.99572 9.50183L9.13572 7.57198L8.27571 9.50183H9.99572ZM2.81161 10.2396C2.78246 10.1112 2.70319 9.99912 2.59082 9.92745C2.47845 9.85579 2.34193 9.83024 2.21058 9.85629C2.07923 9.88235 1.96353 9.95792 1.88831 10.0668C1.81309 10.1757 1.78435 10.3092 1.80827 10.4386C2.14727 12.0652 3.04804 13.527 4.35828 14.5768C5.66853 15.6266 7.30784 16.2 8.99904 16.2C10.6902 16.2 12.3295 15.6266 13.6398 14.5768C14.95 13.527 15.8508 12.0652 16.1898 10.4386C16.2081 10.3503 16.2018 10.2587 16.1717 10.1736C16.1415 10.0884 16.0886 10.0128 16.0185 9.95466C15.9484 9.89649 15.8636 9.85791 15.773 9.84296C15.6825 9.82802 15.5895 9.83725 15.5038 9.8697L13.7296 10.5401C13.6062 10.5903 13.5076 10.6858 13.455 10.8062C13.4023 10.9267 13.3996 11.0626 13.4476 11.185C13.4955 11.3073 13.5903 11.4064 13.7116 11.4612C13.833 11.5159 13.9713 11.5219 14.0971 11.4779L14.9152 11.1693C14.4343 12.4293 13.5492 13.5015 12.3933 14.2243C11.2373 14.9471 9.87329 15.2813 8.50698 15.1763C7.14067 15.0714 5.84618 14.533 4.81882 13.6425C3.79147 12.752 3.08696 11.5576 2.81161 10.2396Z" fill="currentColor"/>
</svg>
