<svg width="18" height="18" viewBox="0 0 18 18" fill="none" xmlns="http://www.w3.org/2000/svg">
<path fill-rule="evenodd" clip-rule="evenodd" d="M1.87639 9.0001C1.8743 9.92234 1.83315 11.1802 2.4037 11.6504C2.9359 12.089 3.31046 11.976 4.28208 12.0473C5.25441 12.1193 7.30647 14.9775 8.88841 14.0734C9.70449 13.4317 9.76517 12.0863 9.76517 9.0001C9.76517 5.91387 9.70449 4.56851 8.88841 3.92678C7.30647 3.02203 5.25441 5.8809 4.28208 5.95288C3.31046 6.02418 2.9359 5.91117 2.4037 6.34976C1.83315 6.81996 1.8743 8.07786 1.87639 9.0001Z" stroke="black" stroke-width="1.5" stroke-linecap="round" stroke-linejoin="round"/>
<path d="M14.6882 4.42773C16.6008 7.181 16.6071 10.8128 14.6882 13.5714" stroke="black" stroke-width="1.5" stroke-linecap="round" stroke-linejoin="round"/>
<path d="M12.811 6.23535C13.7945 7.95337 13.7945 10.0514 12.811 11.7641" stroke="black" stroke-width="1.5" stroke-linecap="round" stroke-linejoin="round"/>
</svg>
