<svg width="21" height="17" viewBox="0 0 21 17" fill="none" xmlns="http://www.w3.org/2000/svg">
	<path d="M1.94995 17.01V14.99H19.0601V1.96001H21V14.99H19.0701V17.01H1.94995ZM0.0100098 14.98V2.16001H1.94995V14.98H0.0100098ZM2 13V11H9.01001V13H2ZM9.01001 11V7.00001H11.01V11H9.01001ZM2 7.00001V5.00001H9.01001V7.00001H2ZM2.42993 2.29001V0.0100098H18.8589V2.29001H2.42993Z" fill="black" />
	<path d="M5 10C5.55228 10 6 9.55228 6 9C6 8.44772 5.55228 8 5 8C4.44772 8 4 8.44772 4 9C4 9.55228 4.44772 10 5 10Z" fill="black" />
</svg>
