<svg width="18" height="18" viewBox="0 0 18 18" fill="none" xmlns="http://www.w3.org/2000/svg">
<path d="M11.4449 16.5008C11.3999 16.5008 11.3474 16.4933 11.3024 16.4783C9.79487 16.0508 8.21237 16.0508 6.70487 16.4783C6.42737 16.5533 6.13487 16.3958 6.05987 16.1183C5.97737 15.8408 6.14237 15.5483 6.41987 15.4733C8.11487 14.9933 9.89987 14.9933 11.5949 15.4733C11.8724 15.5558 12.0374 15.8408 11.9549 16.1183C11.8799 16.3508 11.6699 16.5008 11.4449 16.5008Z" fill="url(#paint0_linear_1430_1867)"/>
<path d="M14.4074 4.76818C13.6274 3.19318 12.1199 2.03068 10.3724 1.64818C8.54242 1.24318 6.66742 1.67818 5.23492 2.83318C3.79492 3.98068 2.97742 5.69818 2.97742 7.53568C2.97742 9.47818 4.13992 11.5107 5.89492 12.6882V13.3107C5.88742 13.5207 5.87992 13.8432 6.13492 14.1057C6.39742 14.3757 6.78742 14.4057 7.09492 14.4057H10.9424C11.3474 14.4057 11.6549 14.2932 11.8649 14.0832C12.1499 13.7907 12.1424 13.4157 12.1349 13.2132V12.6882C14.4599 11.1207 15.9224 7.81318 14.4074 4.76818ZM10.2899 8.71318L9.48742 10.1082C9.38242 10.2882 9.19492 10.3932 8.99992 10.3932C8.90242 10.3932 8.80492 10.3707 8.72242 10.3182C8.45242 10.1607 8.36242 9.81568 8.51242 9.55318L9.14992 8.44318H8.51992C8.14492 8.44318 7.83742 8.27818 7.67242 8.00068C7.50742 7.71568 7.52242 7.37068 7.70992 7.04068L8.51242 5.64568C8.66992 5.37568 9.01492 5.28568 9.27742 5.43568C9.54742 5.59318 9.63742 5.93818 9.48742 6.20068L8.84992 7.31068H9.47992C9.85492 7.31068 10.1624 7.47568 10.3274 7.75318C10.4924 8.03818 10.4774 8.39068 10.2899 8.71318Z" fill="url(#paint1_linear_1430_1867)"/>
<defs>
<linearGradient id="paint0_linear_1430_1867" x1="6.03857" y1="15.807" x2="11.9762" y2="15.807" gradientUnits="userSpaceOnUse">
<stop stop-color="#1FA2FF"/>
<stop offset="0.5" stop-color="#12D8FA"/>
<stop offset="1" stop-color="#A6FFCB"/>
</linearGradient>
<linearGradient id="paint1_linear_1430_1867" x1="2.97742" y1="7.95284" x2="15.0262" y2="7.95284" gradientUnits="userSpaceOnUse">
<stop stop-color="#1FA2FF"/>
<stop offset="0.5" stop-color="#12D8FA"/>
<stop offset="1" stop-color="#A6FFCB"/>
</linearGradient>
</defs>
</svg>
