<svg width="351" height="53" viewBox="0 0 351 53" fill="none" xmlns="http://www.w3.org/2000/svg">
<g filter="url(#filter0_di_280_10544)">
<path fill-rule="evenodd" clip-rule="evenodd" d="M341.66 3.69V1H6.35999V3.69H3.70001V6.39001H1V43.62H3.70001V46.3H6.35999V49H341.66V46.3H344.32V43.62H347.01V6.39001H344.32V3.69H341.66Z" fill="url(#paint0_linear_280_10544)"/>
<path d="M341.66 1H342.66V0H341.66V1ZM341.66 3.69H340.66V4.69H341.66V3.69ZM6.35999 1V0H5.35999V1H6.35999ZM6.35999 3.69V4.69H7.35999V3.69H6.35999ZM3.70001 3.69V2.69H2.70001V3.69H3.70001ZM3.70001 6.39001V7.39001H4.70001V6.39001H3.70001ZM1 6.39001V5.39001H0V6.39001H1ZM1 43.62H0V44.62H1V43.62ZM3.70001 43.62H4.70001V42.62H3.70001V43.62ZM3.70001 46.3H2.70001V47.3H3.70001V46.3ZM6.35999 46.3H7.35999V45.3H6.35999V46.3ZM6.35999 49H5.35999V50H6.35999V49ZM341.66 49V50H342.66V49H341.66ZM341.66 46.3V45.3H340.66V46.3H341.66ZM344.32 46.3V47.3H345.32V46.3H344.32ZM344.32 43.62V42.62H343.32V43.62H344.32ZM347.01 43.62V44.62H348.01V43.62H347.01ZM347.01 6.39001H348.01V5.39001H347.01V6.39001ZM344.32 6.39001H343.32V7.39001H344.32V6.39001ZM344.32 3.69H345.32V2.69H344.32V3.69ZM340.66 1V3.69H342.66V1H340.66ZM6.35999 2H341.66V0H6.35999V2ZM7.35999 3.69V1H5.35999V3.69H7.35999ZM6.35999 2.69H3.70001V4.69H6.35999V2.69ZM2.70001 3.69V6.39001H4.70001V3.69H2.70001ZM3.70001 5.39001H1V7.39001H3.70001V5.39001ZM0 6.39001V43.62H2V6.39001H0ZM1 44.62H3.70001V42.62H1V44.62ZM2.70001 43.62V46.3H4.70001V43.62H2.70001ZM3.70001 47.3H6.35999V45.3H3.70001V47.3ZM7.35999 49V46.3H5.35999V49H7.35999ZM341.66 48H6.35999V50H341.66V48ZM340.66 46.3V49H342.66V46.3H340.66ZM341.66 47.3H344.32V45.3H341.66V47.3ZM345.32 46.3V43.62H343.32V46.3H345.32ZM344.32 44.62H347.01V42.62H344.32V44.62ZM348.01 43.62V6.39001H346.01V43.62H348.01ZM347.01 5.39001H344.32V7.39001H347.01V5.39001ZM345.32 6.39001V3.69H343.32V6.39001H345.32ZM344.32 2.69H341.66V4.69H344.32V2.69Z" fill="#080102"/>
</g>
<defs>
<filter id="filter0_di_280_10544" x="0" y="0" width="350.131" height="52.1213" filterUnits="userSpaceOnUse" color-interpolation-filters="sRGB">
<feFlood flood-opacity="0" result="BackgroundImageFix"/>
<feColorMatrix in="SourceAlpha" type="matrix" values="0 0 0 0 0 0 0 0 0 0 0 0 0 0 0 0 0 0 127 0" result="hardAlpha"/>
<feOffset dx="2.12132" dy="2.12132"/>
<feColorMatrix type="matrix" values="0 0 0 0 0.0666667 0 0 0 0 0.0666667 0 0 0 0 0.0705882 0 0 0 0.231373 0"/>
<feBlend mode="normal" in2="BackgroundImageFix" result="effect1_dropShadow_280_10544"/>
<feBlend mode="normal" in="SourceGraphic" in2="effect1_dropShadow_280_10544" result="shape"/>
<feColorMatrix in="SourceAlpha" type="matrix" values="0 0 0 0 0 0 0 0 0 0 0 0 0 0 0 0 0 0 127 0" result="hardAlpha"/>
<feOffset dx="3.53553" dy="3.53553"/>
<feComposite in2="hardAlpha" operator="arithmetic" k2="-1" k3="1"/>
<feColorMatrix type="matrix" values="0 0 0 0 0.709804 0 0 0 0 0.921569 0 0 0 0 0.643137 0 0 0 1 0"/>
<feBlend mode="normal" in2="shape" result="effect2_innerShadow_280_10544"/>
</filter>
<linearGradient id="paint0_linear_280_10544" x1="385.071" y1="54.28" x2="385.071" y2="-4.27995" gradientUnits="userSpaceOnUse">
<stop stop-color="#5CAD42"/>
<stop offset="0.246826" stop-color="#5CAD42"/>
<stop offset="1" stop-color="#77BA61"/>
</linearGradient>
</defs>
</svg>
